<svg width="183" height="86" viewBox="0 0 183 86" fill="none" xmlns="http://www.w3.org/2000/svg">
<circle cx="38.2674" cy="37.0487" r="27.5428" fill="black"/>
<path d="M59.0918 31.4475L57.7331 73.8613L21.681 51.4777L59.0918 31.4475Z" fill="#FBF0B7"/>
<rect y="32.3416" width="37.9065" height="37.9065" transform="rotate(-58.5611 0 32.3416)" fill="#C5E8EB"/>
<path d="M36.2877 17.5816C33.4704 17.9738 31.1094 19.4794 29.8769 21.6784C29.0605 23.135 28.8925 24.0454 29.0285 26.3844C29.1486 28.5273 29.0445 29.2906 28.4123 30.7543C27.5479 32.7501 27.3638 33.9547 27.6279 35.9995L27.732 36.8049L27.4919 37.106C27.3638 37.2741 27.2277 37.3861 27.1957 37.3511C27.1637 37.3231 26.9876 36.945 26.7956 36.5248C26.6035 36.0976 26.3634 35.6074 26.2673 35.4323C25.6191 34.2838 23.7783 34.2278 22.9939 35.3273C22.7858 35.6284 22.7538 35.7404 22.7538 36.1676C22.7538 36.5038 22.8018 36.7349 22.8979 36.8889L23.0419 37.12H22.2176C21.2732 37.12 20.833 37.029 19.9926 36.6718C19.0722 36.2797 18.488 36.3567 17.9597 36.9309L17.7116 37.2041L17.6876 38.3175C17.6556 39.6201 17.7437 39.9422 18.2079 40.3694C18.8321 40.9297 20.7449 41.602 21.7294 41.602H22.1536V42.4423C22.1536 42.9045 22.0415 44.5012 21.9135 45.9999C21.7774 47.4915 21.6894 48.8501 21.7134 49.0252C21.8334 49.8025 22.4897 50.5588 23.3381 50.902C23.7382 51.07 23.8983 51.0911 24.5946 51.0911C25.2429 51.0911 25.467 51.063 25.7631 50.944C26.5314 50.6289 26.6675 50.4608 28.4043 47.6246C29.3006 46.1609 30.053 44.9634 30.077 44.9634C30.101 44.9634 30.197 45.1945 30.3011 45.4746C30.4051 45.7548 30.6292 46.1819 30.8053 46.42L31.1174 46.8612V48.9901V51.1261H31.7577H32.398V48.8081V46.4901L32.0138 45.9859C31.4616 45.2645 31.3175 44.8233 31.3175 43.8429C31.3175 43.2407 31.3575 42.9325 31.4696 42.6244C31.6537 42.1482 32.0858 41.5319 32.518 41.1678L32.8222 40.9087L32.39 40.4745L31.9658 40.0403L31.4616 40.5095C31.0694 40.8806 30.8293 41.2168 30.3251 42.0782C29.9809 42.6804 29.1486 44.06 28.4843 45.1385L27.2758 47.0993V43.7029V40.3064L27.772 39.2209C28.3242 38.0094 28.4923 37.7433 28.9325 37.3651C29.6848 36.7279 30.3411 36.5598 32.0778 36.5598L33.3184 36.5668L35.1992 39.5921C37.2241 42.8485 37.2161 42.8415 37.7443 42.6804C37.9204 42.6314 38.1044 42.3863 38.6807 41.4619L39.401 40.3064L39.441 44.1791C39.481 47.9957 39.481 48.0587 39.6491 48.1778C39.7451 48.2408 40.3854 48.3879 41.2258 48.535L42.6424 48.7731V49.9496V51.1261H43.2827H43.9229V50.0756C43.9229 49.4944 43.955 49.0252 43.987 49.0252C44.027 49.0252 44.5952 49.1232 45.2435 49.2353C45.9558 49.3613 46.6761 49.4453 47.0523 49.4453H47.6766L47.9327 49.8725C48.8931 51.4412 51.2701 51.5533 52.3986 50.0756L52.7428 49.6204L53.5591 49.5014C53.9993 49.4313 54.4475 49.3613 54.5435 49.3403C54.8477 49.2773 55.2798 48.8921 55.3759 48.598C55.4319 48.4509 55.52 48.3249 55.584 48.3249C55.648 48.3249 55.7841 48.2478 55.8881 48.1498L56.0882 47.9817V43.0026V38.0234L55.8881 37.8553C55.7841 37.7573 55.616 37.6803 55.5119 37.6803C55.0157 37.6803 49.1732 38.5977 48.8451 38.7237C48.4289 38.8848 48.4769 38.9268 48.1248 38.1145C48.0047 37.8343 47.7726 37.4282 47.6045 37.2041L47.3084 36.8049L47.4125 35.9995C47.6766 33.9757 47.4685 32.6101 46.6361 30.7613C46.0199 29.4027 45.8838 28.4503 46.0118 26.3214C46.1399 24.1294 45.9878 23.184 45.2835 21.8744C44.1791 19.8156 42.1142 18.3099 39.6171 17.7497C38.7447 17.5536 37.112 17.4695 36.2877 17.5816ZM39.321 18.8351C40.0253 18.9962 41.0737 19.4094 41.666 19.7665C42.9225 20.5159 44.003 21.8114 44.4672 23.121C44.7873 24.0174 44.8353 24.6056 44.7313 26.3284C44.6112 28.4013 44.7233 29.3887 45.2355 30.6562C45.3476 30.9153 45.5637 31.4476 45.7157 31.8327C46.1399 32.8832 46.268 33.6675 46.2199 34.8651C46.1959 35.4183 46.1559 35.8875 46.1319 35.9085C46.1079 35.9295 45.9238 35.8805 45.7237 35.7965C45.0114 35.5023 44.4672 35.4393 42.6424 35.4393C41.4019 35.4393 40.8896 35.4183 40.8176 35.3553C40.7536 35.2992 40.7216 34.9281 40.7216 34.1367V33.0093L41.1457 32.7641C42.5143 31.9658 43.5708 30.4882 43.8349 29.0175C43.8829 28.7444 43.9229 27.757 43.9229 26.8396C43.9229 25.3409 43.9069 25.1449 43.7789 25.0048C43.6748 24.8857 43.4187 24.8157 42.6424 24.6827C40.1213 24.2415 37.6002 23.198 35.6634 21.7834C34.9271 21.2442 34.6389 21.3002 34.1907 22.0845C33.6065 23.086 32.7661 23.9964 31.8537 24.5916C31.0614 25.1098 31.1174 24.9278 31.1174 26.8956C31.1174 28.7934 31.1815 29.2906 31.5656 30.18C31.9738 31.1464 32.9262 32.1969 33.9026 32.7641L34.3188 33.0093V34.1367C34.3188 34.9281 34.2868 35.2992 34.2228 35.3553C34.1507 35.4183 33.6385 35.4393 32.398 35.4393C30.5892 35.4393 30.093 35.4953 29.3246 35.7895C29.1086 35.8665 28.9085 35.9155 28.8845 35.8875C28.8604 35.8665 28.8364 35.2782 28.8364 34.5779C28.8444 33.1143 28.9325 32.6731 29.5407 31.3005C30.2931 29.5988 30.4451 28.6254 30.3091 26.3284C30.237 25.0958 30.237 24.6126 30.3091 24.1644C30.7733 21.3842 33.1023 19.2623 36.2636 18.7301C37.048 18.597 38.4966 18.6531 39.321 18.8351ZM35.8555 23.3241C37.7203 24.4936 39.9292 25.3269 42.4263 25.8101L42.6584 25.8522L42.6264 27.4419C42.5944 28.9475 42.5864 29.0595 42.3863 29.5428C42.0902 30.2711 41.722 30.7753 41.1217 31.3075C40.5135 31.8327 39.9372 32.1549 39.1049 32.414C38.6007 32.5681 38.3926 32.5961 37.5602 32.6031C36.7839 32.6031 36.4957 32.5751 36.0395 32.449C34.735 32.0849 33.5665 31.2235 32.9742 30.187C32.486 29.3327 32.398 28.8845 32.398 27.1337V25.6631L32.9262 25.2779C33.5745 24.8157 34.3828 24.0104 34.823 23.3801C35.0071 23.121 35.1672 22.9039 35.1752 22.9039C35.1832 22.9039 35.4873 23.093 35.8555 23.3241ZM37.5202 33.7096C38.2405 33.7096 38.7447 33.6745 39.0248 33.6045L39.441 33.4995V34.4869C39.441 35.6214 39.5371 35.9015 40.0413 36.2587L40.3374 36.4757L39.9612 37.078L39.5851 37.6803H37.5202H35.4553L35.0791 37.078L34.703 36.4757L34.9991 36.2587C35.5033 35.9015 35.5994 35.6214 35.5994 34.4869V33.4995L36.0235 33.6045C36.2957 33.6745 36.7999 33.7096 37.5202 33.7096ZM25.0108 35.8035C25.0988 35.8945 25.3549 36.3707 25.587 36.8749L25.9952 37.7853V39.1299V40.4815H23.6982C22.0255 40.4815 21.2812 40.4535 20.9931 40.3834C20.4328 40.2574 19.1363 39.6691 19.0322 39.5081C18.9282 39.326 18.9202 37.5402 19.0322 37.5402C19.0802 37.5402 19.3363 37.6382 19.6005 37.7573C20.4888 38.1425 21.1131 38.2405 22.8098 38.2405C24.3065 38.2405 24.3225 38.2405 24.5146 38.0654C24.7947 37.8273 24.7627 37.6242 24.3545 36.9099C24.1544 36.5668 23.9944 36.2166 23.9944 36.1396C23.9944 35.9225 24.3465 35.6494 24.6186 35.6494C24.7547 35.6494 24.9147 35.7124 25.0108 35.8035ZM45.0674 36.7629C45.7397 36.994 46.42 37.5682 46.7642 38.2055C46.9162 38.4856 47.0443 38.7447 47.0443 38.7867C47.0443 38.8288 46.9002 38.8078 46.6841 38.7237C46.468 38.6397 45.2515 38.4296 43.6428 38.1915L40.9697 37.7993L41.3458 37.1761L41.722 36.5528L43.1626 36.5808C44.4272 36.6018 44.6593 36.6228 45.0674 36.7629ZM38.6567 39.1649C38.5286 39.368 38.2325 39.8442 38.0084 40.2154C37.7763 40.5935 37.5602 40.9017 37.5202 40.9017C37.4802 40.9017 37.2641 40.5935 37.032 40.2154C36.8079 39.8442 36.5118 39.368 36.3837 39.1649L36.1436 38.8008H37.5202H38.8968L38.6567 39.1649ZM43.3867 39.291C44.7153 39.487 45.9558 39.6901 46.1399 39.7532C46.444 39.8512 46.9643 40.2784 46.9643 40.4255C46.9643 40.5375 46.5561 40.4815 43.6668 39.9773L40.7216 39.466V39.2069C40.7216 39.0108 40.7536 38.9408 40.8496 38.9408C40.9136 38.9408 42.0581 39.1019 43.3867 39.291ZM54.8076 39.2069V39.466L51.8704 39.9773C49.0292 40.4675 48.565 40.5305 48.565 40.4325C48.565 40.3204 48.9971 39.9072 49.2292 39.8022C49.4613 39.6971 54.0553 38.9618 54.5916 38.9478C54.7916 38.9408 54.8076 38.9618 54.8076 39.2069ZM43.4668 41.0767L45.8438 41.4969V44.8444V48.1988L45.6677 48.1708C45.5637 48.1568 44.4112 47.9537 43.1066 47.7226L40.7216 47.3094V43.955V40.6075L40.9056 40.6355C41.0017 40.6495 42.1542 40.8526 43.4668 41.0767ZM54.8076 42.8905V45.1595L54.4555 45.0474C54.1193 44.9424 54.0313 44.9424 52.9508 45.0895C51.4702 45.2996 51.046 45.4046 50.7899 45.6427C50.4057 45.9929 50.3257 46.28 50.3257 47.2394C50.3257 47.7226 50.2937 48.1148 50.2537 48.1148C50.2137 48.1148 50.0696 48.1358 49.9335 48.1568L49.6854 48.1988V44.8514V41.4969L52.1505 41.0627C53.5031 40.8246 54.6556 40.6285 54.7116 40.6285C54.7836 40.6215 54.8076 41.1188 54.8076 42.8905ZM25.9952 42.1622V42.7224H24.7147H23.4341V42.1622V41.602H24.7147H25.9952V42.1622ZM48.4049 44.9634V48.3249H47.7646H47.1243V44.9634V41.602H47.7646H48.4049V44.9634ZM25.9952 46.364C25.9952 48.4859 25.9792 48.9341 25.8752 49.1512C25.3309 50.2717 23.6102 50.2717 23.074 49.1372C22.9539 48.8921 22.9619 48.703 23.162 46.357L23.3861 43.8429H24.6907H25.9952V46.364ZM54.1273 47.2044V48.2828L52.8708 48.4719L51.6063 48.654V47.5825C51.6063 46.8052 51.6303 46.4971 51.7103 46.4551C51.8384 46.378 53.6712 46.0909 53.9273 46.1049L54.1273 46.1189V47.2044ZM50.5658 49.3053C50.5658 49.3403 50.6939 49.4453 50.8539 49.5434L51.1421 49.7115L50.934 49.8305C50.4618 50.1036 49.7335 50.0266 49.3253 49.6554L49.1012 49.4523L49.2933 49.4103C50.2297 49.2212 50.5658 49.1932 50.5658 49.3053Z" fill="black"/>
<path d="M34.2788 25.9782C33.9186 26.1183 33.7185 26.3984 33.7185 26.7626C33.7185 27.0567 33.7586 27.1337 33.9827 27.3298C34.2067 27.5259 34.2948 27.5609 34.6389 27.5609C34.9831 27.5609 35.0711 27.5259 35.2952 27.3298C35.5193 27.1337 35.5593 27.0567 35.5593 26.7556C35.5593 26.4614 35.5193 26.3774 35.3112 26.1883C35.0471 25.9572 34.5749 25.8662 34.2788 25.9782Z" fill="black"/>
<path d="M40.0413 25.9782C39.6811 26.1183 39.481 26.3984 39.481 26.7626C39.481 27.0567 39.521 27.1337 39.7451 27.3298C39.9692 27.5259 40.0573 27.5609 40.4014 27.5609C40.7456 27.5609 40.8336 27.5259 41.0577 27.3298C41.2818 27.1337 41.3218 27.0567 41.3218 26.7556C41.3218 26.4614 41.2818 26.3774 41.0737 26.1883C40.8096 25.9572 40.3374 25.8662 40.0413 25.9782Z" fill="black"/>
<path d="M35.5994 28.8285C35.5994 29.1576 35.8235 29.5428 36.1996 29.8719C36.7839 30.3901 37.4081 30.5162 38.1845 30.2851C38.8007 30.103 39.441 29.3607 39.441 28.8285C39.441 28.7374 39.345 28.7164 38.8248 28.7164C38.2005 28.7164 38.2005 28.7164 38.0804 28.9475C37.9364 29.2136 37.6162 29.3327 37.3041 29.2346C37.176 29.1996 37.032 29.0736 36.96 28.9475C36.8399 28.7164 36.8399 28.7164 36.2236 28.7164C35.6954 28.7164 35.5994 28.7374 35.5994 28.8285Z" fill="black"/>
<path d="M77.22 46L77.52 29.8H79.74L82.6 42.94L85.48 29.8H87.68L87.98 46H86.16L85.98 34.24L83.24 46H81.96L79.24 34.24L79.06 46H77.22Z" fill="black"/>
<path d="M93.1631 46.16C92.7098 46.16 92.3098 46.0333 91.9631 45.78C91.6165 45.5133 91.3431 45.18 91.1431 44.78C90.9431 44.3667 90.8431 43.9333 90.8431 43.48C90.8431 42.76 90.9631 42.1533 91.2031 41.66C91.4431 41.1667 91.7698 40.7533 92.1831 40.42C92.6098 40.0733 93.0965 39.7733 93.6431 39.52C94.2031 39.2667 94.7898 39.02 95.4031 38.78V37.96C95.4031 37.4933 95.3765 37.1067 95.3231 36.8C95.2698 36.4933 95.1565 36.2667 94.9831 36.12C94.8231 35.96 94.5765 35.88 94.2431 35.88C93.9498 35.88 93.7098 35.9467 93.5231 36.08C93.3498 36.2133 93.2231 36.4067 93.1431 36.66C93.0631 36.9 93.0231 37.1867 93.0231 37.52V38.1L90.9031 38.02C90.9298 36.74 91.2231 35.8 91.7831 35.2C92.3431 34.5867 93.2098 34.28 94.3831 34.28C95.5298 34.28 96.3431 34.5933 96.8231 35.22C97.3031 35.8467 97.5431 36.7533 97.5431 37.94V43.22C97.5431 43.58 97.5498 43.9267 97.5631 44.26C97.5898 44.5933 97.6165 44.9067 97.6431 45.2C97.6831 45.48 97.7165 45.7467 97.7431 46H95.7831C95.7431 45.7867 95.6898 45.52 95.6231 45.2C95.5698 44.8667 95.5298 44.5667 95.5031 44.3C95.3698 44.7533 95.1098 45.18 94.7231 45.58C94.3498 45.9667 93.8298 46.16 93.1631 46.16ZM94.0031 44.32C94.2165 44.32 94.4165 44.26 94.6031 44.14C94.7898 44.02 94.9565 43.8867 95.1031 43.74C95.2498 43.58 95.3498 43.4533 95.4031 43.36V40.08C95.0698 40.2667 94.7565 40.4533 94.4631 40.64C94.1698 40.8267 93.9098 41.0267 93.6831 41.24C93.4698 41.44 93.2965 41.6733 93.1631 41.94C93.0431 42.1933 92.9831 42.4867 92.9831 42.82C92.9831 43.2867 93.0698 43.6533 93.2431 43.92C93.4165 44.1867 93.6698 44.32 94.0031 44.32Z" fill="black"/>
<path d="M103.323 46.16C102.723 46.16 102.236 46.0467 101.863 45.82C101.503 45.5933 101.236 45.2733 101.063 44.86C100.903 44.4467 100.823 43.96 100.823 43.4V35.86H99.6025V34.44H100.823V31.06H102.963V34.44H104.823V35.86H102.963V43.26C102.963 43.7133 103.036 44.04 103.183 44.24C103.329 44.4267 103.609 44.52 104.023 44.52C104.129 44.52 104.249 44.5133 104.383 44.5C104.529 44.4867 104.669 44.4733 104.803 44.46V46.04C104.536 46.08 104.289 46.1067 104.063 46.12C103.836 46.1467 103.589 46.16 103.323 46.16Z" fill="black"/>
<path d="M107.255 46V29.8H109.395V35.64C109.782 35.2667 110.215 34.9467 110.695 34.68C111.175 34.4133 111.708 34.28 112.295 34.28C112.748 34.28 113.095 34.4 113.335 34.64C113.588 34.88 113.762 35.18 113.855 35.54C113.962 35.9 114.015 36.2667 114.015 36.64V46H111.875V37.26C111.875 36.8467 111.815 36.5267 111.695 36.3C111.575 36.0733 111.328 35.96 110.955 35.96C110.702 35.96 110.435 36.0333 110.155 36.18C109.888 36.3267 109.635 36.5067 109.395 36.72V46H107.255Z" fill="black"/>
<path d="M120.481 46.18C119.748 46.18 119.114 46.0267 118.581 45.72C118.061 45.4 117.661 44.9667 117.381 44.42C117.114 43.8733 116.981 43.2467 116.981 42.54C116.981 41.5133 117.208 40.6267 117.661 39.88C118.128 39.12 118.688 38.4467 119.341 37.86C119.101 37.38 118.841 36.9 118.561 36.42C118.294 35.9267 118.061 35.42 117.861 34.9C117.674 34.3667 117.581 33.8133 117.581 33.24C117.581 32.52 117.721 31.8933 118.001 31.36C118.281 30.8267 118.681 30.4133 119.201 30.12C119.721 29.8133 120.334 29.66 121.041 29.66C121.694 29.66 122.274 29.78 122.781 30.02C123.301 30.26 123.714 30.6067 124.021 31.06C124.328 31.5 124.481 32.0333 124.481 32.66C124.481 33.3667 124.314 34.0467 123.981 34.7C123.661 35.34 123.268 35.94 122.801 36.5C122.334 37.0467 121.881 37.5333 121.441 37.96L123.881 41.8C124.028 41.52 124.148 41.2067 124.241 40.86C124.348 40.5 124.434 40.12 124.501 39.72C124.581 39.32 124.641 38.9333 124.681 38.56H126.801C126.801 39.08 126.721 39.6267 126.561 40.2C126.414 40.7733 126.221 41.32 125.981 41.84C125.741 42.3467 125.494 42.78 125.241 43.14C125.414 43.3533 125.641 43.5467 125.921 43.72C126.201 43.88 126.501 43.96 126.821 43.96V46.16C126.768 46.16 126.714 46.16 126.661 46.16C126.621 46.16 126.581 46.16 126.541 46.16C126.154 46.1467 125.808 46.06 125.501 45.9C125.194 45.7267 124.914 45.52 124.661 45.28C124.421 45.04 124.188 44.8133 123.961 44.6C123.601 45.0533 123.128 45.4333 122.541 45.74C121.968 46.0333 121.281 46.18 120.481 46.18ZM120.481 44.4C120.988 44.4 121.414 44.28 121.761 44.04C122.108 43.7867 122.408 43.5067 122.661 43.2L120.181 39.38C119.861 39.7933 119.601 40.28 119.401 40.84C119.214 41.3867 119.121 41.9533 119.121 42.54C119.121 42.8467 119.161 43.1467 119.241 43.44C119.321 43.72 119.461 43.9533 119.661 44.14C119.861 44.3133 120.134 44.4 120.481 44.4ZM120.701 36.8C120.981 36.4667 121.241 36.0733 121.481 35.62C121.734 35.1667 121.941 34.6867 122.101 34.18C122.261 33.66 122.341 33.1533 122.341 32.66C122.341 32.2733 122.221 31.9733 121.981 31.76C121.741 31.5333 121.428 31.42 121.041 31.42C120.561 31.42 120.221 31.6067 120.021 31.98C119.821 32.3533 119.721 32.7733 119.721 33.24C119.721 33.8533 119.821 34.4667 120.021 35.08C120.234 35.68 120.461 36.2533 120.701 36.8Z" fill="black"/>
<path d="M129.97 46L130.27 29.8H132.49L135.35 42.94L138.23 29.8H140.43L140.73 46H138.91L138.73 34.24L135.99 46H134.71L131.99 34.24L131.81 46H129.97Z" fill="black"/>
<path d="M145.913 46.16C145.46 46.16 145.06 46.0333 144.713 45.78C144.366 45.5133 144.093 45.18 143.893 44.78C143.693 44.3667 143.593 43.9333 143.593 43.48C143.593 42.76 143.713 42.1533 143.953 41.66C144.193 41.1667 144.52 40.7533 144.933 40.42C145.36 40.0733 145.846 39.7733 146.393 39.52C146.953 39.2667 147.54 39.02 148.153 38.78V37.96C148.153 37.4933 148.126 37.1067 148.073 36.8C148.02 36.4933 147.906 36.2667 147.733 36.12C147.573 35.96 147.326 35.88 146.993 35.88C146.7 35.88 146.46 35.9467 146.273 36.08C146.1 36.2133 145.973 36.4067 145.893 36.66C145.813 36.9 145.773 37.1867 145.773 37.52V38.1L143.653 38.02C143.68 36.74 143.973 35.8 144.533 35.2C145.093 34.5867 145.96 34.28 147.133 34.28C148.28 34.28 149.093 34.5933 149.573 35.22C150.053 35.8467 150.293 36.7533 150.293 37.94V43.22C150.293 43.58 150.3 43.9267 150.313 44.26C150.34 44.5933 150.366 44.9067 150.393 45.2C150.433 45.48 150.466 45.7467 150.493 46H148.533C148.493 45.7867 148.44 45.52 148.373 45.2C148.32 44.8667 148.28 44.5667 148.253 44.3C148.12 44.7533 147.86 45.18 147.473 45.58C147.1 45.9667 146.58 46.16 145.913 46.16ZM146.753 44.32C146.966 44.32 147.166 44.26 147.353 44.14C147.54 44.02 147.706 43.8867 147.853 43.74C148 43.58 148.1 43.4533 148.153 43.36V40.08C147.82 40.2667 147.506 40.4533 147.213 40.64C146.92 40.8267 146.66 41.0267 146.433 41.24C146.22 41.44 146.046 41.6733 145.913 41.94C145.793 42.1933 145.733 42.4867 145.733 42.82C145.733 43.2867 145.82 43.6533 145.993 43.92C146.166 44.1867 146.42 44.32 146.753 44.32Z" fill="black"/>
<path d="M156.073 46.16C155.473 46.16 154.986 46.0467 154.612 45.82C154.252 45.5933 153.986 45.2733 153.812 44.86C153.652 44.4467 153.573 43.96 153.573 43.4V35.86H152.353V34.44H153.573V31.06H155.713V34.44H157.573V35.86H155.713V43.26C155.713 43.7133 155.786 44.04 155.932 44.24C156.079 44.4267 156.359 44.52 156.772 44.52C156.879 44.52 156.999 44.5133 157.132 44.5C157.279 44.4867 157.419 44.4733 157.552 44.46V46.04C157.286 46.08 157.039 46.1067 156.812 46.12C156.586 46.1467 156.339 46.16 156.073 46.16Z" fill="black"/>
<path d="M160.085 46V34.44H162.225V46H160.085ZM160.085 32.72V30.48H162.225V32.72H160.085Z" fill="black"/>
<path d="M165.495 46V29.8H167.755V37.44L171.475 29.8H173.575L170.375 36.94L174.095 46H171.895L168.795 38.4L167.755 40.28V46H165.495Z" fill="black"/>
<path d="M178.098 46.16C177.644 46.16 177.244 46.0333 176.897 45.78C176.551 45.5133 176.277 45.18 176.077 44.78C175.877 44.3667 175.777 43.9333 175.777 43.48C175.777 42.76 175.897 42.1533 176.137 41.66C176.377 41.1667 176.704 40.7533 177.118 40.42C177.544 40.0733 178.031 39.7733 178.577 39.52C179.137 39.2667 179.724 39.02 180.338 38.78V37.96C180.338 37.4933 180.311 37.1067 180.257 36.8C180.204 36.4933 180.091 36.2667 179.918 36.12C179.758 35.96 179.511 35.88 179.177 35.88C178.884 35.88 178.644 35.9467 178.457 36.08C178.284 36.2133 178.157 36.4067 178.077 36.66C177.997 36.9 177.957 37.1867 177.957 37.52V38.1L175.838 38.02C175.864 36.74 176.157 35.8 176.717 35.2C177.277 34.5867 178.144 34.28 179.317 34.28C180.464 34.28 181.277 34.5933 181.757 35.22C182.237 35.8467 182.478 36.7533 182.478 37.94V43.22C182.478 43.58 182.484 43.9267 182.497 44.26C182.524 44.5933 182.551 44.9067 182.577 45.2C182.617 45.48 182.651 45.7467 182.677 46H180.717C180.677 45.7867 180.624 45.52 180.558 45.2C180.504 44.8667 180.464 44.5667 180.438 44.3C180.304 44.7533 180.044 45.18 179.658 45.58C179.284 45.9667 178.764 46.16 178.098 46.16ZM178.938 44.32C179.151 44.32 179.351 44.26 179.537 44.14C179.724 44.02 179.891 43.8867 180.037 43.74C180.184 43.58 180.284 43.4533 180.338 43.36V40.08C180.004 40.2667 179.691 40.4533 179.397 40.64C179.104 40.8267 178.844 41.0267 178.618 41.24C178.404 41.44 178.231 41.6733 178.098 41.94C177.978 42.1933 177.918 42.4867 177.918 42.82C177.918 43.2867 178.004 43.6533 178.177 43.92C178.351 44.1867 178.604 44.32 178.938 44.32Z" fill="black"/>
<path d="M78.13 56.08C77.7033 56.08 77.3667 55.9933 77.12 55.82C76.8733 55.6467 76.6967 55.4 76.59 55.08C76.49 54.76 76.44 54.3833 76.44 53.95V52.27C76.44 51.8367 76.49 51.46 76.59 51.14C76.6967 50.82 76.8733 50.5733 77.12 50.4C77.3667 50.2267 77.7033 50.14 78.13 50.14C78.5567 50.14 78.89 50.2267 79.13 50.4C79.3767 50.5733 79.55 50.82 79.65 51.14C79.7567 51.46 79.81 51.8367 79.81 52.27V53.95C79.81 54.3833 79.7567 54.76 79.65 55.08C79.55 55.4 79.3767 55.6467 79.13 55.82C78.89 55.9933 78.5567 56.08 78.13 56.08ZM78.13 55.29C78.3367 55.29 78.48 55.23 78.56 55.11C78.6467 54.99 78.6967 54.8333 78.71 54.64C78.73 54.44 78.74 54.2333 78.74 54.02V52.21C78.74 51.99 78.73 51.7833 78.71 51.59C78.6967 51.3967 78.6467 51.24 78.56 51.12C78.48 50.9933 78.3367 50.93 78.13 50.93C77.9233 50.93 77.7767 50.9933 77.69 51.12C77.6033 51.24 77.55 51.3967 77.53 51.59C77.5167 51.7833 77.51 51.99 77.51 52.21V54.02C77.51 54.2333 77.5167 54.44 77.53 54.64C77.55 54.8333 77.6033 54.99 77.69 55.11C77.7767 55.23 77.9233 55.29 78.13 55.29Z" fill="#333333" fill-opacity="0.3"/>
<path d="M81.188 56V50.22H82.258V52.65H83.628V50.22H84.6981V56H83.628V53.43H82.258V56H81.188Z" fill="#333333" fill-opacity="0.3"/>
<path d="M85.8079 56.05V55.24C86.0079 55.24 86.1646 55.2 86.2779 55.12C86.3979 55.04 86.4879 54.9067 86.5479 54.72C86.6146 54.5267 86.6646 54.27 86.6979 53.95C86.7312 53.6233 86.7612 53.2167 86.7879 52.73L86.9179 50.22H89.9479V56H88.8779V51.03H87.8579L87.7679 52.73C87.7346 53.39 87.6846 53.9367 87.6179 54.37C87.5579 54.8033 87.4612 55.1433 87.3279 55.39C87.1946 55.63 87.0146 55.8 86.7879 55.9C86.5679 56 86.2812 56.05 85.9279 56.05H85.8079Z" fill="#333333" fill-opacity="0.3"/>
<path d="M92.4714 56.08C92.2447 56.08 92.0447 56.0167 91.8714 55.89C91.6981 55.7567 91.5614 55.59 91.4614 55.39C91.3614 55.1833 91.3114 54.9667 91.3114 54.74C91.3114 54.38 91.3714 54.0767 91.4914 53.83C91.6114 53.5833 91.7747 53.3767 91.9814 53.21C92.1947 53.0367 92.4381 52.8867 92.7114 52.76C92.9914 52.6333 93.2847 52.51 93.5914 52.39V51.98C93.5914 51.7467 93.5781 51.5533 93.5514 51.4C93.5247 51.2467 93.4681 51.1333 93.3814 51.06C93.3014 50.98 93.1781 50.94 93.0114 50.94C92.8647 50.94 92.7447 50.9733 92.6514 51.04C92.5647 51.1067 92.5014 51.2033 92.4614 51.33C92.4214 51.45 92.4014 51.5933 92.4014 51.76V52.05L91.3414 52.01C91.3547 51.37 91.5014 50.9 91.7814 50.6C92.0614 50.2933 92.4947 50.14 93.0814 50.14C93.6547 50.14 94.0614 50.2967 94.3014 50.61C94.5414 50.9233 94.6614 51.3767 94.6614 51.97V54.61C94.6614 54.79 94.6647 54.9633 94.6714 55.13C94.6847 55.2967 94.6981 55.4533 94.7114 55.6C94.7314 55.74 94.7481 55.8733 94.7614 56H93.7814C93.7614 55.8933 93.7347 55.76 93.7014 55.6C93.6747 55.4333 93.6547 55.2833 93.6414 55.15C93.5747 55.3767 93.4447 55.59 93.2514 55.79C93.0647 55.9833 92.8047 56.08 92.4714 56.08ZM92.8914 55.16C92.9981 55.16 93.0981 55.13 93.1914 55.07C93.2847 55.01 93.3681 54.9433 93.4414 54.87C93.5147 54.79 93.5647 54.7267 93.5914 54.68V53.04C93.4247 53.1333 93.2681 53.2267 93.1214 53.32C92.9747 53.4133 92.8447 53.5133 92.7314 53.62C92.6247 53.72 92.5381 53.8367 92.4714 53.97C92.4114 54.0967 92.3814 54.2433 92.3814 54.41C92.3814 54.6433 92.4247 54.8267 92.5114 54.96C92.5981 55.0933 92.7247 55.16 92.8914 55.16Z" fill="#333333" fill-opacity="0.3"/>
<path d="M96.0892 56V50.22H96.9892V54.11L98.7292 50.22H99.5692V56H98.6892V52.08L96.9592 56H96.0892ZM97.8592 49.59C97.3792 49.59 97.0392 49.46 96.8392 49.2C96.6459 48.94 96.5492 48.6167 96.5492 48.23H97.1692C97.1759 48.47 97.2292 48.6567 97.3292 48.79C97.4359 48.9167 97.6126 48.98 97.8592 48.98C98.1126 48.98 98.2892 48.9133 98.3892 48.78C98.4959 48.6467 98.5492 48.4633 98.5492 48.23H99.1792C99.1792 48.6167 99.0792 48.94 98.8792 49.2C98.6859 49.46 98.3459 49.59 97.8592 49.59Z" fill="#333333" fill-opacity="0.3"/>
<path d="M101.06 56V50.22H102.13V52.65H103.5V50.22H104.57V56H103.5V53.43H102.13V56H101.06Z" fill="#333333" fill-opacity="0.3"/>
<path d="M105.999 53.39V52.58H108.229V53.39H105.999Z" fill="#333333" fill-opacity="0.3"/>
<path d="M109.662 57.9V50.22H110.732V50.68C110.859 50.5333 111.012 50.4067 111.192 50.3C111.372 50.1933 111.586 50.14 111.832 50.14C112.132 50.14 112.369 50.22 112.542 50.38C112.722 50.5333 112.856 50.73 112.942 50.97C113.029 51.2033 113.086 51.4433 113.112 51.69C113.139 51.93 113.152 52.1367 113.152 52.31V53.71C113.152 54.1167 113.112 54.5033 113.032 54.87C112.952 55.23 112.806 55.5233 112.592 55.75C112.386 55.97 112.092 56.08 111.712 56.08C111.506 56.08 111.322 56.03 111.162 55.93C111.002 55.8233 110.859 55.7033 110.732 55.57V57.9H109.662ZM111.502 55.24C111.689 55.24 111.822 55.1733 111.902 55.04C111.982 54.9 112.032 54.7133 112.052 54.48C112.072 54.2467 112.082 53.99 112.082 53.71V52.31C112.082 52.07 112.069 51.85 112.042 51.65C112.016 51.4433 111.959 51.28 111.872 51.16C111.786 51.04 111.649 50.98 111.462 50.98C111.322 50.98 111.189 51.01 111.062 51.07C110.936 51.13 110.826 51.2 110.732 51.28V54.98C110.832 55.0533 110.946 55.1167 111.072 55.17C111.199 55.2167 111.342 55.24 111.502 55.24Z" fill="#333333" fill-opacity="0.3"/>
<path d="M116.125 56.08C115.672 56.08 115.322 55.9933 115.075 55.82C114.828 55.64 114.655 55.38 114.555 55.04C114.462 54.6933 114.415 54.27 114.415 53.77V52.45C114.415 51.9367 114.465 51.51 114.565 51.17C114.665 50.83 114.838 50.5733 115.085 50.4C115.338 50.2267 115.685 50.14 116.125 50.14C116.612 50.14 116.968 50.24 117.195 50.44C117.428 50.64 117.582 50.93 117.655 51.31C117.728 51.6833 117.765 52.1333 117.765 52.66V53.13H115.485V54.29C115.485 54.5233 115.505 54.7133 115.545 54.86C115.592 55.0067 115.662 55.1167 115.755 55.19C115.855 55.2567 115.982 55.29 116.135 55.29C116.295 55.29 116.415 55.2533 116.495 55.18C116.582 55.1 116.638 54.99 116.665 54.85C116.698 54.7033 116.715 54.5333 116.715 54.34V53.99H117.755V54.21C117.755 54.79 117.632 55.2467 117.385 55.58C117.138 55.9133 116.718 56.08 116.125 56.08ZM115.485 52.55H116.715V52.03C116.715 51.79 116.702 51.59 116.675 51.43C116.648 51.2633 116.592 51.14 116.505 51.06C116.425 50.9733 116.295 50.93 116.115 50.93C115.942 50.93 115.808 50.97 115.715 51.05C115.628 51.13 115.568 51.2667 115.535 51.46C115.502 51.6467 115.485 51.9067 115.485 52.24V52.55Z" fill="#333333" fill-opacity="0.3"/>
<path d="M119.134 56V50.22H122.494V56H121.424V51.03H120.204V56H119.134Z" fill="#333333" fill-opacity="0.3"/>
<path d="M125.578 56.08C125.124 56.08 124.774 55.9933 124.528 55.82C124.281 55.64 124.108 55.38 124.008 55.04C123.914 54.6933 123.868 54.27 123.868 53.77V52.45C123.868 51.9367 123.918 51.51 124.018 51.17C124.118 50.83 124.291 50.5733 124.538 50.4C124.791 50.2267 125.138 50.14 125.578 50.14C126.064 50.14 126.421 50.24 126.648 50.44C126.881 50.64 127.034 50.93 127.108 51.31C127.181 51.6833 127.218 52.1333 127.218 52.66V53.13H124.938V54.29C124.938 54.5233 124.958 54.7133 124.998 54.86C125.044 55.0067 125.114 55.1167 125.208 55.19C125.308 55.2567 125.434 55.29 125.588 55.29C125.748 55.29 125.868 55.2533 125.948 55.18C126.034 55.1 126.091 54.99 126.118 54.85C126.151 54.7033 126.168 54.5333 126.168 54.34V53.99H127.208V54.21C127.208 54.79 127.084 55.2467 126.838 55.58C126.591 55.9133 126.171 56.08 125.578 56.08ZM124.938 52.55H126.168V52.03C126.168 51.79 126.154 51.59 126.128 51.43C126.101 51.2633 126.044 51.14 125.958 51.06C125.878 50.9733 125.748 50.93 125.568 50.93C125.394 50.93 125.261 50.97 125.168 51.05C125.081 51.13 125.021 51.2667 124.988 51.46C124.954 51.6467 124.938 51.9067 124.938 52.24V52.55Z" fill="#333333" fill-opacity="0.3"/>
<path d="M129.197 56V51.02H128.117V50.22H131.357V51.02H130.267V56H129.197Z" fill="#333333" fill-opacity="0.3"/>
<path d="M132.404 56V50.22H133.304V54.11L135.044 50.22H135.884V56H135.004V52.08L133.274 56H132.404Z" fill="#333333" fill-opacity="0.3"/>
<path d="M138.025 56V51.02H136.945V50.22H140.185V51.02H139.095V56H138.025Z" fill="#333333" fill-opacity="0.3"/>
<path d="M142.763 56.08C142.337 56.08 142 55.9933 141.753 55.82C141.507 55.6467 141.33 55.4 141.223 55.08C141.123 54.76 141.073 54.3833 141.073 53.95V52.27C141.073 51.8367 141.123 51.46 141.223 51.14C141.33 50.82 141.507 50.5733 141.753 50.4C142 50.2267 142.337 50.14 142.763 50.14C143.19 50.14 143.523 50.2267 143.763 50.4C144.01 50.5733 144.183 50.82 144.283 51.14C144.39 51.46 144.443 51.8367 144.443 52.27V53.95C144.443 54.3833 144.39 54.76 144.283 55.08C144.183 55.4 144.01 55.6467 143.763 55.82C143.523 55.9933 143.19 56.08 142.763 56.08ZM142.763 55.29C142.97 55.29 143.113 55.23 143.193 55.11C143.28 54.99 143.33 54.8333 143.343 54.64C143.363 54.44 143.373 54.2333 143.373 54.02V52.21C143.373 51.99 143.363 51.7833 143.343 51.59C143.33 51.3967 143.28 51.24 143.193 51.12C143.113 50.9933 142.97 50.93 142.763 50.93C142.557 50.93 142.41 50.9933 142.323 51.12C142.237 51.24 142.183 51.3967 142.163 51.59C142.15 51.7833 142.143 51.99 142.143 52.21V54.02C142.143 54.2333 142.15 54.44 142.163 54.64C142.183 54.8333 142.237 54.99 142.323 55.11C142.41 55.23 142.557 55.29 142.763 55.29Z" fill="#333333" fill-opacity="0.3"/>
<path d="M145.821 57.9V50.22H146.891V50.68C147.018 50.5333 147.171 50.4067 147.351 50.3C147.531 50.1933 147.745 50.14 147.991 50.14C148.291 50.14 148.528 50.22 148.701 50.38C148.881 50.5333 149.015 50.73 149.101 50.97C149.188 51.2033 149.245 51.4433 149.271 51.69C149.298 51.93 149.311 52.1367 149.311 52.31V53.71C149.311 54.1167 149.271 54.5033 149.191 54.87C149.111 55.23 148.965 55.5233 148.751 55.75C148.545 55.97 148.251 56.08 147.871 56.08C147.665 56.08 147.481 56.03 147.321 55.93C147.161 55.8233 147.018 55.7033 146.891 55.57V57.9H145.821ZM147.661 55.24C147.848 55.24 147.981 55.1733 148.061 55.04C148.141 54.9 148.191 54.7133 148.211 54.48C148.231 54.2467 148.241 53.99 148.241 53.71V52.31C148.241 52.07 148.228 51.85 148.201 51.65C148.175 51.4433 148.118 51.28 148.031 51.16C147.945 51.04 147.808 50.98 147.621 50.98C147.481 50.98 147.348 51.01 147.221 51.07C147.095 51.13 146.985 51.2 146.891 51.28V54.98C146.991 55.0533 147.105 55.1167 147.231 55.17C147.358 55.2167 147.501 55.24 147.661 55.24Z" fill="#333333" fill-opacity="0.3"/>
</svg>
