<svg width="125" height="125" viewBox="0 0 125 125" fill="none" xmlns="http://www.w3.org/2000/svg">
<path d="M100.324 70.6741C98.147 67.6419 95.9313 67.5594 90.4201 70.4576L79.5071 77.1252C78.2678 77.7813 75.6615 78.1498 72.0238 78.2382C71.8531 78.2423 71.684 78.2459 71.515 78.2489C72.0807 77.0765 71.808 75.6406 70.7574 74.0722C68.7935 71.1398 65.3966 69.4064 61.7748 69.4064H56.8983C54.2508 69.4064 51.7322 68.6071 49.7356 67.1019C47.8154 65.6545 45.3439 65.3977 42.5156 66.0597C40.6797 66.4895 38.7532 67.2912 36.7999 68.3563C36.0856 68.7458 35.4011 69.1544 34.7504 69.5685V68.1912C34.7504 67.5008 34.1908 66.9412 33.5004 66.9412H27.25C26.5596 66.9412 26 67.5008 26 68.1912V98.1922C26 98.8826 26.5597 99.4422 27.25 99.4422H33.5002C34.1906 99.4422 34.7502 98.8826 34.7502 98.1922V95.6922H51.0005C53.5587 95.6922 56.1152 95.4988 58.6461 95.1143L74.8495 92.6503C75.435 92.6435 76.0169 92.5755 76.5949 92.4501C78.1013 92.2334 79.5228 91.4987 80.6978 90.3908L99.645 75.6355C101.148 74.3892 101.439 72.2282 100.324 70.6741ZM28.5001 96.9422V69.4414H32.2502V71.9393C32.2502 71.94 32.2501 71.9408 32.2501 71.9415V94.4422C32.2501 94.4431 32.2502 94.4438 32.2502 94.4447V96.9423H28.5001V96.9422ZM98.0912 73.6767L79.1135 88.4556L79.0173 88.5388C78.1898 89.3309 77.2143 89.8385 76.2217 89.9778C75.6482 90.0995 75.1998 90.1507 74.7515 90.1507L74.5636 90.1649L58.2705 92.6424C55.864 93.0082 53.433 93.1921 51.0007 93.1921H34.7502V72.5754C34.9056 72.4655 35.0877 72.3392 35.2943 72.1993C36.1249 71.6374 37.0362 71.075 37.9967 70.5512C39.7685 69.5849 41.4971 68.8655 43.0853 68.4939C45.2576 67.9854 46.9935 68.1657 48.2306 69.0983C50.6724 70.9391 53.7208 71.9065 56.8983 71.9065H61.7748C64.5793 71.9065 67.1903 73.2388 68.6801 75.4634C69.3635 76.4835 69.4145 76.9898 69.1934 77.2712C68.9396 77.5944 68.2517 77.8863 67.2664 78.053C66.4015 78.1994 65.4653 78.2336 64.6576 78.2029C64.6539 78.2027 64.6501 78.2083 64.6461 78.2164C64.5661 78.2002 64.4834 78.1916 64.3987 78.1916H52.2508C48.5154 78.1916 46.0006 79.8375 46.0006 83.1917C46.0006 83.8821 46.5602 84.4417 47.2506 84.4417C47.941 84.4417 48.5006 83.8821 48.5006 83.1917C48.5006 81.4957 49.729 80.6916 52.2507 80.6916H64.3986C64.9442 80.6916 65.1471 80.6947 66.8792 80.7259C69.1457 80.7666 70.5488 80.7745 72.0844 80.7373C76.1073 80.6396 78.9809 80.2332 80.7457 79.2954L91.6539 72.6304C96.1199 70.285 96.9903 70.3174 98.293 72.1316C98.6357 72.6096 98.5482 73.2871 98.0912 73.6767Z" fill="#F5DEB3"/>
<path d="M49.7505 40.4765V58.191C49.7505 60.2618 51.4292 61.9411 53.5006 61.9411H59.7483C59.7492 61.9411 59.75 61.9413 59.7508 61.9413H67.2511C67.2519 61.9413 67.2527 61.9411 67.2536 61.9411H73.5013C75.5727 61.9411 77.2514 60.2618 77.2514 58.191V40.4764C78.708 39.9616 79.7516 38.5735 79.7516 36.9404V33.1903C79.7516 31.1187 78.0731 29.4402 76.0014 29.4402H74.7514V27.7465C74.7514 25.8734 72.9168 24.5507 71.1398 25.1431L66.5152 26.6849C65.6772 26.0506 64.6332 25.674 63.5009 25.674C62.3687 25.674 61.3249 26.0508 60.4866 26.6849L55.8623 25.143C54.0852 24.5506 52.2506 25.8732 52.2506 27.7464V29.4404H51.0006C48.929 29.4404 47.2505 31.1188 47.2505 33.1905V36.9406C47.2505 38.5732 48.2941 39.9616 49.7505 40.4765ZM52.2506 58.191V40.6909H58.5008V59.441H53.5007C52.8103 59.441 52.2506 58.8813 52.2506 58.191ZM61.0008 39.4409V39.4404V35.0049C61.0115 35.011 61.0226 35.0163 61.0333 35.0223C61.1037 35.0623 61.175 35.1007 61.2475 35.1373C61.2642 35.1458 61.2808 35.1546 61.2975 35.1629C61.3868 35.2069 61.4774 35.2486 61.5696 35.2873C61.577 35.2904 61.5846 35.293 61.5919 35.2961C61.6744 35.3302 61.7582 35.3619 61.8428 35.3916C61.8682 35.4006 61.8938 35.4089 61.9193 35.4175C61.9909 35.4414 62.0633 35.4637 62.1364 35.4843C62.1609 35.4912 62.1852 35.4986 62.2098 35.5051C62.3056 35.5306 62.4023 35.5541 62.5003 35.574C62.5075 35.5755 62.5148 35.5765 62.522 35.5778C62.6119 35.5957 62.7027 35.6106 62.7943 35.6237C62.824 35.6279 62.8538 35.6313 62.8836 35.6349C62.9569 35.644 63.0307 35.6513 63.105 35.6572C63.1349 35.6595 63.1648 35.6622 63.1949 35.6641C63.2963 35.6702 63.3981 35.6743 63.5009 35.6743C63.6038 35.6743 63.7056 35.6702 63.807 35.6641C63.837 35.6623 63.8669 35.6595 63.8968 35.6572C63.971 35.6513 64.0447 35.644 64.1181 35.6349C64.148 35.6313 64.1777 35.6278 64.2075 35.6237C64.299 35.6108 64.39 35.5957 64.4798 35.5778C64.487 35.5763 64.4943 35.5755 64.5015 35.574C64.5995 35.5541 64.6961 35.5306 64.7921 35.5051C64.8167 35.4986 64.8409 35.4912 64.8653 35.4843C64.9384 35.4637 65.0108 35.4414 65.0826 35.4175C65.1081 35.409 65.1337 35.4006 65.1589 35.3918C65.2436 35.362 65.3274 35.3304 65.4098 35.2963C65.4172 35.2932 65.4248 35.2905 65.4321 35.2875C65.5244 35.2488 65.6151 35.207 65.7044 35.1631C65.7213 35.1549 65.7377 35.146 65.7542 35.1376C65.8268 35.101 65.8981 35.0626 65.9684 35.0226C65.9791 35.0165 65.9902 35.0113 66.0009 35.0052V39.4407V59.4414H61.0008V39.4409ZM74.7513 58.191C74.7513 58.8813 74.1917 59.441 73.5013 59.441H68.5012V40.6904H74.7514L74.7513 58.191ZM76.0013 31.9402C76.6921 31.9402 77.2513 32.4993 77.2513 33.1902V36.9403C77.2513 37.6313 76.6921 38.1903 76.0013 38.1903H68.5011V35.3254L71.1395 36.2051C72.9165 36.7975 74.7512 35.4748 74.7512 33.6017V33.6015V31.9402H76.0013ZM71.9304 27.5148C72.0883 27.4622 72.2513 27.5795 72.2513 27.7465V30.6902V33.6015C72.2513 33.7684 72.0884 33.8859 71.9304 33.8331L68.5012 32.6893V30.6903C68.5012 30.6886 68.5009 30.6868 68.5009 30.6851C68.5009 30.6814 68.5012 30.6778 68.5012 30.6741C68.5012 30.5904 68.499 30.5071 68.4949 30.4242C68.4917 30.3594 68.4863 30.2953 68.4805 30.2311C68.4791 30.2146 68.4783 30.1979 68.4767 30.1813C68.4287 29.6904 68.3092 29.2208 68.1297 28.782L71.9304 27.5148ZM65.2544 28.8931C65.273 28.9156 65.29 28.9389 65.3105 28.9606C65.6413 29.3103 65.8632 29.7352 65.9542 30.1961C65.9587 30.2194 65.9611 30.2434 65.965 30.267C65.9741 30.3209 65.9833 30.3747 65.9888 30.4295C65.9964 30.508 66.0006 30.5875 66.0008 30.6681C66.0006 30.6738 65.9999 30.6794 65.9999 30.6852C65.9996 30.7703 65.9948 30.8543 65.9861 30.9372C65.9851 30.9463 65.9832 30.9551 65.9822 30.9641C65.9741 31.0334 65.9636 31.102 65.9501 31.1695C65.9413 31.212 65.93 31.2539 65.919 31.2958C65.9111 31.3268 65.9038 31.3583 65.8947 31.389C65.7824 31.7584 65.5839 32.099 65.3105 32.388C65.2907 32.409 65.2743 32.4315 65.2563 32.4533C64.9185 32.787 64.4864 33.0255 64.0034 33.1241C63.9868 33.1275 63.9696 33.1288 63.9529 33.1319C63.8878 33.1437 63.8226 33.1552 63.756 33.1619C63.6722 33.1704 63.5871 33.1748 63.5009 33.1748C63.4148 33.1748 63.3298 33.1704 63.2459 33.1619C63.1793 33.1552 63.1141 33.1439 63.049 33.1319C63.0323 33.1288 63.015 33.1275 62.9985 33.1241C62.5155 33.0255 62.0834 32.787 61.7456 32.4533C61.7276 32.4315 61.7111 32.4091 61.6914 32.388C61.418 32.0991 61.2195 31.7585 61.1072 31.389C61.0981 31.3583 61.0909 31.3271 61.083 31.2961C61.072 31.254 61.0606 31.2123 61.0519 31.1695C61.0385 31.1021 61.0278 31.0337 61.0199 30.9644C61.0188 30.9553 61.0169 30.9464 61.0159 30.9373C61.0073 30.8546 61.0026 30.7705 61.0021 30.6854C61.0021 30.6797 61.0013 30.6741 61.0013 30.6682C61.0014 30.5877 61.0057 30.5081 61.0133 30.4296C61.0187 30.3745 61.0279 30.3205 61.0371 30.2663C61.041 30.2431 61.0433 30.2194 61.0478 30.1964C61.139 29.7355 61.3607 29.3106 61.6915 28.9608C61.712 28.9391 61.729 28.9158 61.7475 28.8932C62.1988 28.4489 62.8176 28.1741 63.5009 28.1741C64.1845 28.174 64.8032 28.4488 65.2544 28.8931ZM54.7507 27.7465C54.7507 27.5797 54.9136 27.4622 55.0717 27.5149L58.8723 28.782C58.6927 29.2208 58.5732 29.6904 58.5253 30.1813C58.5237 30.1979 58.523 30.2146 58.5215 30.2311C58.5159 30.2953 58.5104 30.3593 58.5071 30.4242C58.503 30.5071 58.5008 30.5904 58.5008 30.6741C58.5008 30.6778 58.5011 30.6814 58.5011 30.6851C58.5011 30.6868 58.5008 30.6886 58.5008 30.6903V32.6896L55.0718 33.8322C54.9256 33.881 54.7769 33.7836 54.7551 33.6377C54.7534 33.6258 54.7507 33.6143 54.7507 33.6017V30.6905V27.7465ZM49.7505 33.1906C49.7505 32.4998 50.3096 31.9406 51.0005 31.9406H52.2504V33.6017V33.602C52.2504 33.7568 52.2641 33.9074 52.2881 34.054C52.5546 35.6802 54.232 36.7485 55.862 36.2052L58.5005 35.3256V38.1906H51.0003C50.999 38.1906 50.9978 38.1907 50.9967 38.1907C50.308 38.1887 49.7503 37.6298 49.7503 36.9409V33.1906H49.7505Z" fill="#F5DEB3"/>
<circle cx="62.5" cy="62.5" r="61.5" stroke="#F5DEB3" stroke-width="2"/>
</svg>
