<svg width="125" height="125" viewBox="0 0 125 125" fill="none" xmlns="http://www.w3.org/2000/svg">
<g clip-path="url(#clip0_529_28)">
<path d="M85.9375 69.5312H83.5938V66.0156C83.5938 64.0741 85.1679 62.5 87.1094 62.5C88.4037 62.5 89.4531 61.4506 89.4531 60.1562V58.9844C89.4531 57.69 88.4037 56.6406 87.1094 56.6406H83.5938C82.2994 56.6406 81.25 57.69 81.25 58.9844V60.1562H78.9062V58.9844C78.9062 56.3957 81.0051 54.2969 83.5938 54.2969H87.1094C89.698 54.2969 91.7969 56.3957 91.7969 58.9844V60.1562C91.7969 62.7449 89.698 64.8438 87.1094 64.8438C86.4622 64.8438 85.9375 65.3685 85.9375 66.0156V69.5312Z" fill="#F5DEB3"/>
<path d="M83.5938 71.875H85.9375V74.2188H83.5938V71.875Z" fill="#F5DEB3"/>
<path d="M39.0624 55.9539L35.8901 52.7816L37.5472 51.1245L39.0624 52.6397L46.437 45.2651L48.0941 46.9222L39.0624 55.9539Z" fill="#F5DEB3"/>
<path d="M95.3125 92.9688H92.9688V90.625H90.625V88.2812H95.3125V92.9688Z" fill="#F5DEB3"/>
<path d="M100 63.6719C99.988 55.7199 93.8654 49.1133 85.9375 48.497V25H25V91.7969C25.0051 96.3253 28.6747 99.9949 33.2031 100H91.7969C96.3253 99.9949 99.9949 96.3253 100 91.7969V83.5938H85.9375V78.8467C93.8654 78.2305 99.988 71.6238 100 63.6719ZM33.2031 97.6562C29.9685 97.6522 27.3478 95.0315 27.3438 91.7969V27.3438H83.5938V48.497C75.6567 49.0978 69.5227 55.7131 69.5227 63.673C69.5227 71.633 75.6567 78.2482 83.5938 78.849V91.7969C83.5932 94.0039 84.4852 96.1176 86.0674 97.6562H33.2031ZM97.6562 85.9375V91.7969C97.6562 95.0327 95.0327 97.6562 91.7969 97.6562C88.5611 97.6562 85.9375 95.0327 85.9375 91.7969V85.9375H97.6562ZM84.7656 76.5625C77.6463 76.5625 71.875 70.7912 71.875 63.6719C71.875 56.5525 77.6463 50.7812 84.7656 50.7812C91.885 50.7812 97.6562 56.5525 97.6562 63.6719C97.6477 70.7878 91.8816 76.5539 84.7656 76.5625Z" fill="#F5DEB3"/>
<path d="M35.5469 32.0312H75.3906V34.375H35.5469V32.0312Z" fill="#F5DEB3"/>
<path d="M35.5469 39.0625H75.3906V41.4062H35.5469V39.0625Z" fill="#F5DEB3"/>
<path d="M32.0312 60.1562H46.0938V46.0938H32.0312V60.1562ZM34.375 48.4375H43.75V57.8125H34.375V48.4375Z" fill="#F5DEB3"/>
<path d="M32.0312 76.5625H46.0938V62.5H32.0312V76.5625ZM34.375 64.8438H43.75V74.2188H34.375V64.8438Z" fill="#F5DEB3"/>
<path d="M32.0312 92.9688H46.0938V78.9062H32.0312V92.9688ZM34.375 81.25H43.75V90.625H34.375V81.25Z" fill="#F5DEB3"/>
<path d="M50.7812 49.6094H67.1875V51.9531H50.7812V49.6094Z" fill="#F5DEB3"/>
<path d="M50.7812 54.2969H62.5V56.6406H50.7812V54.2969Z" fill="#F5DEB3"/>
<path d="M50.7812 66.0156H67.1875V68.3594H50.7812V66.0156Z" fill="#F5DEB3"/>
<path d="M50.7812 70.7031H62.5V73.0469H50.7812V70.7031Z" fill="#F5DEB3"/>
<path d="M50.7812 82.4219H67.1875V84.7656H50.7812V82.4219Z" fill="#F5DEB3"/>
<path d="M50.7812 87.1094H62.5V89.4531H50.7812V87.1094Z" fill="#F5DEB3"/>
<path d="M97.6562 25H100V41.4062H97.6562V25Z" fill="#F5DEB3"/>
<path d="M92.9688 25H95.3125V36.7188H92.9688V25Z" fill="#F5DEB3"/>
<path d="M88.2812 25H90.625V32.0312H88.2812V25Z" fill="#F5DEB3"/>
</g>
<circle cx="62.5" cy="62.5" r="61.5" stroke="#F5DEB3" stroke-width="2"/>
<defs>
<clipPath id="clip0_529_28">
<rect width="75" height="75" fill="white" transform="translate(25 25)"/>
</clipPath>
</defs>
</svg>
