<svg width="125" height="125" viewBox="0 0 125 125" fill="none" xmlns="http://www.w3.org/2000/svg">
<path d="M96.0938 87.9375H33.5938C33.3865 87.9375 33.1878 87.8552 33.0413 87.7087C32.8948 87.5622 32.8125 87.3634 32.8125 87.1562C32.8125 86.9491 32.8948 86.7503 33.0413 86.6038C33.1878 86.4573 33.3865 86.375 33.5938 86.375H96.0938C96.7154 86.375 97.3115 86.1281 97.751 85.6885C98.1906 85.249 98.4375 84.6529 98.4375 84.0312V30.9062C98.4375 30.2846 98.1906 29.6885 97.751 29.249C97.3115 28.8094 96.7154 28.5625 96.0938 28.5625H28.9062C28.2846 28.5625 27.6885 28.8094 27.249 29.249C26.8094 29.6885 26.5625 30.2846 26.5625 30.9062V84.0312C26.5625 84.6529 26.8094 85.249 27.249 85.6885C27.6885 86.1281 28.2846 86.375 28.9062 86.375C29.1135 86.375 29.3122 86.4573 29.4587 86.6038C29.6052 86.7503 29.6875 86.9491 29.6875 87.1562C29.6875 87.3634 29.6052 87.5622 29.4587 87.7087C29.3122 87.8552 29.1135 87.9375 28.9062 87.9375C27.8706 87.9363 26.8778 87.5243 26.1455 86.792C25.4132 86.0597 25.0012 85.0669 25 84.0312V30.9062C25.0012 29.8706 25.4132 28.8778 26.1455 28.1455C26.8778 27.4132 27.8706 27.0012 28.9062 27H96.0938C97.1294 27.0012 98.1222 27.4132 98.8545 28.1455C99.5868 28.8778 99.9988 29.8706 100 30.9062V84.0312C99.9988 85.0669 99.5868 86.0597 98.8545 86.792C98.1222 87.5243 97.1294 87.9363 96.0938 87.9375Z" fill="#F5DEB3"/>
<path d="M47.6563 97.3125C47.5112 97.3125 47.3689 97.2721 47.2455 97.1958C47.1221 97.1196 47.0224 97.0104 46.9575 96.8806C46.8926 96.7509 46.8651 96.6056 46.8782 96.4611C46.8912 96.3166 46.9442 96.1786 47.0313 96.0625L54.0625 86.6875C54.1868 86.5217 54.3719 86.4122 54.577 86.3829C54.7821 86.3536 54.9905 86.4069 55.1562 86.5313C55.322 86.6556 55.4316 86.8407 55.4609 87.0458C55.4902 87.2509 55.4368 87.4592 55.3125 87.625L48.2813 97C48.2085 97.097 48.1141 97.1758 48.0056 97.23C47.8972 97.2843 47.7775 97.3125 47.6563 97.3125Z" fill="#F5DEB3"/>
<path d="M77.3437 97.3125C77.2225 97.3125 77.1028 97.2843 76.9944 97.23C76.8859 97.1758 76.7915 97.097 76.7187 97L69.6875 87.625C69.6259 87.5429 69.5812 87.4495 69.5557 87.3501C69.5302 87.2508 69.5246 87.1473 69.5391 87.0458C69.5536 86.9442 69.588 86.8465 69.6403 86.7582C69.6925 86.6699 69.7617 86.5928 69.8438 86.5312C69.9258 86.4697 70.0192 86.4249 70.1186 86.3994C70.218 86.374 70.3214 86.3683 70.423 86.3829C70.5245 86.3974 70.6223 86.4317 70.7105 86.484C70.7988 86.5363 70.8759 86.6054 70.9375 86.6875L77.9688 96.0625C78.0558 96.1786 78.1088 96.3166 78.1218 96.4611C78.1349 96.6056 78.1074 96.7509 78.0425 96.8806C77.9776 97.0104 77.8779 97.1195 77.7545 97.1958C77.6311 97.2721 77.4888 97.3125 77.3437 97.3125Z" fill="#F5DEB3"/>
<path d="M80.4688 97.3125H44.5312C44.324 97.3125 44.1253 97.2302 43.9788 97.0837C43.8323 96.9372 43.75 96.7385 43.75 96.5312C43.75 96.324 43.8323 96.1253 43.9788 95.9788C44.1253 95.8323 44.324 95.75 44.5312 95.75H80.4688C80.6759 95.75 80.8747 95.8323 81.0212 95.9788C81.1677 96.1253 81.25 96.324 81.25 96.5312C81.25 96.7385 81.1677 96.9372 81.0212 97.0837C80.8747 97.2302 80.6759 97.3125 80.4688 97.3125Z" fill="#F5DEB3"/>
<path d="M99.2188 76.2188H25.7812C25.574 76.2188 25.3753 76.1364 25.2288 75.9899C25.0823 75.8434 25 75.6447 25 75.4375C25 75.2303 25.0823 75.0316 25.2288 74.8851C25.3753 74.7386 25.574 74.6562 25.7812 74.6562H99.2188C99.4259 74.6562 99.6247 74.7386 99.7712 74.8851C99.9177 75.0316 100 75.2303 100 75.4375C100 75.6447 99.9177 75.8434 99.7712 75.9899C99.6247 76.1364 99.4259 76.2188 99.2188 76.2188Z" fill="#F5DEB3"/>
<path d="M64.0625 81.6875H60.9375C60.7303 81.6875 60.5316 81.6052 60.3851 81.4587C60.2386 81.3122 60.1562 81.1135 60.1562 80.9062C60.1562 80.699 60.2386 80.5003 60.3851 80.3538C60.5316 80.2073 60.7303 80.125 60.9375 80.125H64.0625C64.2697 80.125 64.4684 80.2073 64.6149 80.3538C64.7614 80.5003 64.8438 80.699 64.8438 80.9062C64.8438 81.1135 64.7614 81.3122 64.6149 81.4587C64.4684 81.6052 64.2697 81.6875 64.0625 81.6875Z" fill="#F5DEB3"/>
<path d="M49.2188 42.625H36.7188C36.0971 42.625 35.501 42.3781 35.0615 41.9385C34.6219 41.499 34.375 40.9029 34.375 40.2812V35.5938C34.375 34.9721 34.6219 34.376 35.0615 33.9365C35.501 33.4969 36.0971 33.25 36.7188 33.25H49.2188C49.8404 33.25 50.4365 33.4969 50.876 33.9365C51.3156 34.376 51.5625 34.9721 51.5625 35.5938V40.2812C51.5625 40.9029 51.3156 41.499 50.876 41.9385C50.4365 42.3781 49.8404 42.625 49.2188 42.625ZM36.7188 34.8125C36.5115 34.8125 36.3128 34.8948 36.1663 35.0413C36.0198 35.1878 35.9375 35.3865 35.9375 35.5938V40.2812C35.9375 40.4885 36.0198 40.6872 36.1663 40.8337C36.3128 40.9802 36.5115 41.0625 36.7188 41.0625H49.2188C49.426 41.0625 49.6247 40.9802 49.7712 40.8337C49.9177 40.6872 50 40.4885 50 40.2812V35.5938C50 35.3865 49.9177 35.1878 49.7712 35.0413C49.6247 34.8948 49.426 34.8125 49.2188 34.8125H36.7188Z" fill="#F5DEB3"/>
<path d="M49.2188 55.9062H36.7188C36.0971 55.9062 35.501 55.6593 35.0615 55.2198C34.6219 54.7802 34.375 54.1841 34.375 53.5625V48.875C34.375 48.2534 34.6219 47.6573 35.0615 47.2177C35.501 46.7782 36.0971 46.5312 36.7188 46.5312H49.2188C49.8404 46.5312 50.4365 46.7782 50.876 47.2177C51.3156 47.6573 51.5625 48.2534 51.5625 48.875V53.5625C51.5625 54.1841 51.3156 54.7802 50.876 55.2198C50.4365 55.6593 49.8404 55.9062 49.2188 55.9062ZM36.7188 48.0938C36.5115 48.0938 36.3128 48.1761 36.1663 48.3226C36.0198 48.4691 35.9375 48.6678 35.9375 48.875V53.5625C35.9375 53.7697 36.0198 53.9684 36.1663 54.1149C36.3128 54.2614 36.5115 54.3438 36.7188 54.3438H49.2188C49.426 54.3438 49.6247 54.2614 49.7712 54.1149C49.9177 53.9684 50 53.7697 50 53.5625V48.875C50 48.6678 49.9177 48.4691 49.7712 48.3226C49.6247 48.1761 49.426 48.0938 49.2188 48.0938H36.7188Z" fill="#F5DEB3"/>
<path d="M49.2188 69.1875H36.7188C36.0971 69.1875 35.501 68.9406 35.0615 68.501C34.6219 68.0615 34.375 67.4654 34.375 66.8438V62.1562C34.375 61.5346 34.6219 60.9385 35.0615 60.499C35.501 60.0594 36.0971 59.8125 36.7188 59.8125H49.2188C49.8404 59.8125 50.4365 60.0594 50.876 60.499C51.3156 60.9385 51.5625 61.5346 51.5625 62.1562V66.8438C51.5625 67.4654 51.3156 68.0615 50.876 68.501C50.4365 68.9406 49.8404 69.1875 49.2188 69.1875ZM36.7188 61.375C36.5115 61.375 36.3128 61.4573 36.1663 61.6038C36.0198 61.7503 35.9375 61.949 35.9375 62.1562V66.8438C35.9375 67.051 36.0198 67.2497 36.1663 67.3962C36.3128 67.5427 36.5115 67.625 36.7188 67.625H49.2188C49.426 67.625 49.6247 67.5427 49.7712 67.3962C49.9177 67.2497 50 67.051 50 66.8438V62.1562C50 61.949 49.9177 61.7503 49.7712 61.6038C49.6247 61.4573 49.426 61.375 49.2188 61.375H36.7188Z" fill="#F5DEB3"/>
<path d="M58.5938 52H50.7812C50.574 52 50.3753 51.9177 50.2288 51.7712C50.0823 51.6247 50 51.426 50 51.2188C50 51.0115 50.0823 50.8128 50.2288 50.6663C50.3753 50.5198 50.574 50.4375 50.7812 50.4375H58.5938C58.801 50.4375 58.9997 50.5198 59.1462 50.6663C59.2927 50.8128 59.375 51.0115 59.375 51.2188C59.375 51.426 59.2927 51.6247 59.1462 51.7712C58.9997 51.9177 58.801 52 58.5938 52Z" fill="#F5DEB3"/>
<path d="M42.9688 48.0938C42.7615 48.0938 42.5628 48.0114 42.4163 47.8649C42.2698 47.7184 42.1875 47.5197 42.1875 47.3125V41.8438C42.1875 41.6365 42.2698 41.4378 42.4163 41.2913C42.5628 41.1448 42.7615 41.0625 42.9688 41.0625C43.176 41.0625 43.3747 41.1448 43.5212 41.2913C43.6677 41.4378 43.75 41.6365 43.75 41.8438V47.3125C43.75 47.5197 43.6677 47.7184 43.5212 47.8649C43.3747 48.0114 43.176 48.0938 42.9688 48.0938Z" fill="#F5DEB3"/>
<path d="M42.9688 61.375C42.7615 61.375 42.5628 61.2927 42.4163 61.1462C42.2698 60.9997 42.1875 60.801 42.1875 60.5938V55.125C42.1875 54.9178 42.2698 54.7191 42.4163 54.5726C42.5628 54.4261 42.7615 54.3438 42.9688 54.3438C43.176 54.3438 43.3747 54.4261 43.5212 54.5726C43.6677 54.7191 43.75 54.9178 43.75 55.125V60.5938C43.75 60.801 43.6677 60.9997 43.5212 61.1462C43.3747 61.2927 43.176 61.375 42.9688 61.375Z" fill="#F5DEB3"/>
<path d="M74.2187 67.625C71.84 67.6236 69.49 67.1049 67.3317 66.105C65.1734 65.105 63.2583 63.6477 61.7193 61.834C60.1802 60.0203 59.0539 57.8936 58.4185 55.6014C57.783 53.3091 57.6537 50.9061 58.0393 48.5588C58.425 46.2116 59.3164 43.9763 60.6519 42.0078C61.9874 40.0394 63.7349 38.3849 65.7734 37.159C67.8119 35.9331 70.0926 35.1652 72.4574 34.9084C74.8222 34.6516 77.2146 34.9121 79.4687 35.6719C79.5662 35.7047 79.6562 35.7563 79.7337 35.8239C79.8112 35.8915 79.8747 35.9737 79.9204 36.0658C79.9661 36.1579 79.9933 36.2581 80.0003 36.3606C80.0073 36.4632 79.9941 36.5662 79.9613 36.6637C79.9285 36.7611 79.8769 36.8512 79.8093 36.9287C79.7417 37.0062 79.6595 37.0696 79.5674 37.1154C79.4753 37.1611 79.3751 37.1883 79.2725 37.1953C79.1699 37.2023 79.067 37.189 78.9695 37.1562C75.618 36.0238 71.9722 36.1255 68.689 37.4431C65.4059 38.7607 62.7013 41.2076 61.0626 44.3429C59.4238 47.4781 58.9587 51.0955 59.751 54.5433C60.5433 57.9911 62.541 61.0426 65.384 63.1479C68.227 65.2533 71.7285 66.274 75.2575 66.0262C78.7864 65.7783 82.1109 64.2783 84.6318 61.7963C87.1527 59.3144 88.7043 56.0137 89.007 52.4889C89.3097 48.9642 88.3436 45.4473 86.2828 42.5719C86.1619 42.4035 86.1128 42.194 86.1464 41.9895C86.1799 41.785 86.2933 41.6021 86.4617 41.4812C86.63 41.3603 86.8395 41.3113 87.044 41.3448C87.2486 41.3784 87.4314 41.4918 87.5523 41.6602C89.3099 44.112 90.3575 47.001 90.5798 50.0096C90.8022 53.0181 90.1907 56.0297 88.8126 58.7133C87.4345 61.3969 85.3432 63.6486 82.7685 65.2208C80.1938 66.793 77.2355 67.6249 74.2187 67.625Z" fill="#F5DEB3"/>
<path d="M68.7501 55.9063C68.5674 55.9062 68.3905 55.8421 68.2501 55.725L63.5626 51.8188C63.4747 51.7455 63.404 51.6537 63.3554 51.55C63.3069 51.4463 63.2817 51.3333 63.2817 51.2188C63.2817 51.1043 63.3069 50.9912 63.3554 50.8875C63.404 50.7838 63.4747 50.6921 63.5626 50.6188L68.2501 46.7125C68.3289 46.6468 68.4199 46.5972 68.5179 46.5666C68.6158 46.536 68.7189 46.5249 68.8211 46.5342C68.9233 46.5434 69.0227 46.5726 69.1136 46.6203C69.2045 46.6679 69.2852 46.733 69.3509 46.8117C69.4167 46.8905 69.4663 46.9815 69.4969 47.0795C69.5275 47.1774 69.5385 47.2805 69.5293 47.3827C69.5201 47.4849 69.4908 47.5843 69.4432 47.6752C69.3956 47.7661 69.3305 47.8468 69.2517 47.9125L65.2829 51.2188L69.2509 54.525C69.3742 54.6279 69.4629 54.7662 69.5048 54.9212C69.5467 55.0762 69.5398 55.2404 69.485 55.3913C69.4303 55.5423 69.3304 55.6727 69.1989 55.7648C69.0674 55.857 68.9107 55.9064 68.7501 55.9063Z" fill="#F5DEB3"/>
<path d="M79.6877 55.9063C79.5271 55.9065 79.3703 55.8573 79.2387 55.7652C79.1071 55.6731 79.007 55.5427 78.9522 55.3917C78.8974 55.2407 78.8904 55.0765 78.9323 54.9214C78.9741 54.7663 79.0628 54.6279 79.1862 54.525L83.1541 51.2188L79.187 47.9125C79.1082 47.8468 79.0431 47.7661 78.9955 47.6752C78.9478 47.5843 78.9186 47.4849 78.9094 47.3827C78.9002 47.2805 78.9112 47.1774 78.9418 47.0795C78.9724 46.9815 79.022 46.8905 79.0877 46.8117C79.1535 46.733 79.2341 46.6679 79.325 46.6203C79.416 46.5726 79.5154 46.5434 79.6176 46.5342C79.7198 46.5249 79.8228 46.536 79.9208 46.5666C80.0188 46.5972 80.1097 46.6468 80.1885 46.7125L84.876 50.6188C84.9639 50.6921 85.0347 50.7838 85.0832 50.8875C85.1318 50.9912 85.1569 51.1043 85.1569 51.2188C85.1569 51.3333 85.1318 51.4463 85.0832 51.55C85.0347 51.6537 84.9639 51.7455 84.876 51.8188L80.1885 55.725C80.048 55.8422 79.8707 55.9064 79.6877 55.9063Z" fill="#F5DEB3"/>
<path d="M72.6564 58.2499C72.5366 58.25 72.4183 58.2226 72.3108 58.1697C72.2033 58.1168 72.1094 58.0398 72.0364 57.9448C71.9633 57.8498 71.9131 57.7393 71.8897 57.6218C71.8662 57.5042 71.87 57.3829 71.901 57.2671L75.026 45.5484C75.0821 45.3513 75.2135 45.1842 75.3918 45.0831C75.57 44.9819 75.7809 44.9549 75.9789 45.0078C76.1769 45.0607 76.3461 45.1892 76.4502 45.3658C76.5543 45.5423 76.5849 45.7527 76.5353 45.9515L73.4103 57.6703C73.366 57.8364 73.2681 57.9832 73.1317 58.088C72.9954 58.1928 72.8284 58.2497 72.6564 58.2499Z" fill="#F5DEB3"/>
<circle cx="62.5" cy="62.5" r="61.5" stroke="#F5DEB3" stroke-width="2"/>
</svg>
