<svg width="125" height="125" viewBox="0 0 125 125" fill="none" xmlns="http://www.w3.org/2000/svg">
<path d="M91.3101 72.5992H80.0367C79.3882 72.5992 78.8623 73.125 78.8623 73.7736C78.8623 74.4222 79.388 74.948 80.0367 74.948H91.3101C91.9586 74.948 92.4845 74.4222 92.4845 73.7736C92.4845 73.125 91.9587 72.5992 91.3101 72.5992Z" fill="#F5DEB3"/>
<path d="M88.8049 77.6096H80.0367C79.3882 77.6096 78.8623 78.1354 78.8623 78.784C78.8623 79.4325 79.388 79.9583 80.0367 79.9583H88.8049C89.4534 79.9583 89.9793 79.4326 89.9793 78.784C89.9793 78.1355 89.4534 77.6096 88.8049 77.6096Z" fill="#F5DEB3"/>
<path d="M75.8564 72.9431C75.3979 72.4845 74.6542 72.4845 74.1957 72.9431L70.0157 77.1232L67.0882 74.1957C66.6295 73.737 65.886 73.737 65.4275 74.1957C64.9688 74.6543 64.9688 75.3977 65.4275 75.8564L69.1852 79.6142C69.4145 79.8434 69.7151 79.9581 70.0155 79.9581C70.316 79.9581 70.6165 79.8435 70.8458 79.6142L75.8563 74.6036C76.3151 74.1452 76.3151 73.4017 75.8564 72.9431Z" fill="#F5DEB3"/>
<path d="M91.3101 60.073H80.0367C79.3882 60.073 78.8623 60.5987 78.8623 61.2474C78.8623 61.896 79.388 62.4217 80.0367 62.4217H91.3101C91.9586 62.4217 92.4845 61.896 92.4845 61.2474C92.4845 60.5987 91.9587 60.073 91.3101 60.073Z" fill="#F5DEB3"/>
<path d="M88.8049 65.0835H80.0367C79.3882 65.0835 78.8623 65.6092 78.8623 66.2579C78.8623 66.9065 79.388 67.4322 80.0367 67.4322H88.8049C89.4534 67.4322 89.9793 66.9065 89.9793 66.2579C89.9793 65.6092 89.4534 65.0835 88.8049 65.0835Z" fill="#F5DEB3"/>
<path d="M75.8564 60.4171C75.3979 59.9585 74.6542 59.9585 74.1957 60.4171L70.0157 64.5972L67.0882 61.6697C66.6295 61.211 65.886 61.211 65.4275 61.6697C64.9688 62.1283 64.9688 62.8717 65.4275 63.3304L69.1852 67.0881C69.4145 67.3174 69.7151 67.4321 70.0155 67.4321C70.316 67.4321 70.6165 67.3175 70.8458 67.0881L75.8563 62.0776C76.3151 61.619 76.3151 60.8756 75.8564 60.4171Z" fill="#F5DEB3"/>
<path d="M91.3101 85.1252H80.0367C79.3882 85.1252 78.8623 85.651 78.8623 86.2996C78.8623 86.9481 79.388 87.474 80.0367 87.474H91.3101C91.9586 87.474 92.4845 86.9482 92.4845 86.2996C92.4845 85.651 91.9587 85.1252 91.3101 85.1252Z" fill="#F5DEB3"/>
<path d="M88.8049 90.1357H80.0367C79.3882 90.1357 78.8623 90.6613 78.8623 91.3101C78.8623 91.9586 79.388 92.4845 80.0367 92.4845H88.8049C89.4534 92.4845 89.9793 91.9587 89.9793 91.3101C89.9793 90.6613 89.4534 90.1357 88.8049 90.1357Z" fill="#F5DEB3"/>
<path d="M75.8564 85.4693C75.3979 85.0107 74.6544 85.0107 74.1957 85.4693L70.0157 89.6494L67.0882 86.7219C66.6295 86.2633 65.886 86.2633 65.4275 86.7219C64.9688 87.1806 64.9688 87.9241 65.4275 88.3826L69.1852 92.1404C69.4145 92.3698 69.7151 92.4843 70.0155 92.4843C70.316 92.4843 70.6165 92.3698 70.8458 92.1404L75.8563 87.1299C76.3151 86.6713 76.3151 85.9278 75.8564 85.4693Z" fill="#F5DEB3"/>
<path d="M63.3304 39.5308C63.789 39.0722 63.789 38.3287 63.3304 37.8701C62.8717 37.4115 62.1282 37.4115 61.6697 37.8701L52.9014 46.6384C52.8879 46.6517 52.8764 46.6662 52.8636 46.68C52.3703 46.4337 51.8143 46.2943 51.2265 46.2943C50.6397 46.2943 50.0848 46.4331 49.592 46.6785L42.0359 39.1225C41.5773 38.6639 40.8337 38.6639 40.3752 39.1225C39.9166 39.5812 39.9166 40.3246 40.3752 40.7832L47.9313 48.3392C47.6858 48.832 47.5471 49.3869 47.5471 49.9737C47.5471 52.0026 49.1977 53.6532 51.2266 53.6532C53.2556 53.6532 54.9062 52.0026 54.9062 49.9737C54.9062 49.3857 54.7669 48.8299 54.5205 48.3366C54.5343 48.324 54.5486 48.3124 54.562 48.2989L63.3304 39.5308ZM51.2266 51.3048C50.4928 51.3048 49.8957 50.7077 49.8957 49.9738C49.8957 49.2399 50.4928 48.6429 51.2266 48.6429C51.9605 48.6429 52.5576 49.2399 52.5576 49.9738C52.5576 50.7077 51.9605 51.3048 51.2266 51.3048Z" fill="#F5DEB3"/>
<path d="M51.2266 30.0105C50.5781 30.0105 50.0522 30.5362 50.0522 31.1849V33.69C50.0522 34.3387 50.578 34.8644 51.2266 34.8644C51.8752 34.8644 52.401 34.3388 52.401 33.69V31.1847C52.4008 30.5362 51.8751 30.0105 51.2266 30.0105Z" fill="#F5DEB3"/>
<path d="M51.2266 65.0835C50.5781 65.0835 50.0522 65.6092 50.0522 66.2579V68.763C50.0522 69.4115 50.578 69.9374 51.2266 69.9374C51.8752 69.9374 52.401 69.4117 52.401 68.763V66.2579C52.4008 65.6092 51.8751 65.0835 51.2266 65.0835Z" fill="#F5DEB3"/>
<path d="M34.9424 48.7996H32.4371C31.7886 48.7996 31.2627 49.3253 31.2627 49.9739C31.2627 50.6226 31.7884 51.1483 32.4371 51.1483H34.9422C35.5907 51.1483 36.1166 50.6226 36.1166 49.9739C36.1166 49.3253 35.5909 48.7996 34.9424 48.7996Z" fill="#F5DEB3"/>
<path d="M37.7115 40.815L35.542 39.5624C34.9803 39.2379 34.2621 39.4306 33.9378 39.9922C33.6135 40.5538 33.806 41.272 34.3676 41.5963L36.5372 42.8489C36.722 42.9557 36.924 43.0064 37.1233 43.0064C37.5292 43.0064 37.9238 42.7957 38.1413 42.4191C38.4656 41.8574 38.2732 41.1392 37.7115 40.815Z" fill="#F5DEB3"/>
<path d="M61.2081 32.6852C60.6465 32.3607 59.9283 32.5534 59.604 33.115L58.3514 35.2846C58.0271 35.8462 58.2196 36.5642 58.7812 36.8887C58.966 36.9955 59.168 37.0462 59.3673 37.0462C59.7732 37.0462 60.1678 36.8355 60.3853 36.4589L61.6379 34.2893C61.9621 33.7277 61.7698 33.0095 61.2081 32.6852Z" fill="#F5DEB3"/>
<path d="M43.672 63.0592C43.1104 62.7348 42.3922 62.9273 42.0678 63.4889L40.8153 65.6585C40.4909 66.2201 40.6834 66.9384 41.245 67.2627C41.4299 67.3696 41.6319 67.4201 41.8311 67.4201C42.237 67.4201 42.6317 67.2095 42.8492 66.8329L44.1018 64.6633C44.426 64.1017 44.2336 63.3836 43.672 63.0592Z" fill="#F5DEB3"/>
<path d="M68.5154 39.9923C68.191 39.4305 67.4728 39.2382 66.9112 39.5625L64.7416 40.8151C64.18 41.1394 63.9875 41.8576 64.3118 42.4192C64.5294 42.796 64.924 43.0065 65.3299 43.0065C65.5291 43.0065 65.7311 42.9558 65.916 42.849L68.0856 41.5964C68.6472 41.2721 68.8395 40.5539 68.5154 39.9923Z" fill="#F5DEB3"/>
<path d="M38.1412 57.5288C37.8169 56.967 37.0985 56.7747 36.537 57.099L34.3676 58.3516C33.806 58.6759 33.6135 59.3941 33.9378 59.9557C34.1553 60.3325 34.55 60.543 34.9559 60.543C35.1551 60.543 35.3571 60.4923 35.542 60.3855L37.7115 59.1329C38.273 58.8086 38.4655 58.0904 38.1412 57.5288Z" fill="#F5DEB3"/>
<path d="M44.1018 35.2845L42.8492 33.1149C42.5249 32.5532 41.8067 32.3608 41.245 32.6852C40.6834 33.0095 40.4909 33.7277 40.8153 34.2893L42.0678 36.4589C42.2854 36.8357 42.68 37.0461 43.0859 37.0461C43.2851 37.0461 43.4871 36.9955 43.672 36.8887C44.2336 36.5644 44.426 35.8461 44.1018 35.2845Z" fill="#F5DEB3"/>
<path d="M82.5418 52.5574H66.2579C65.6094 52.5574 65.0835 53.0831 65.0835 53.7317C65.0835 54.3804 65.6092 54.9061 66.2579 54.9061H82.5418C83.1903 54.9061 83.7162 54.3804 83.7162 53.7317C83.7162 53.0831 83.1904 52.5574 82.5418 52.5574Z" fill="#F5DEB3"/>
<path d="M98.4033 55.4066L88.3825 45.3858C88.1623 45.1655 87.8636 45.0418 87.5522 45.0418H75.7122C74.6242 39.6224 71.7408 34.6831 67.519 31.046C62.9934 27.1472 57.2072 25 51.2264 25C37.4557 25 26.2524 36.2033 26.2524 49.974C26.2524 63.7447 37.4556 74.9479 51.2264 74.9479C53.828 74.9479 56.3749 74.5526 58.8203 73.7717V96.3206C58.8203 98.3494 60.4709 100 62.4999 100H95.0677C97.0967 100 98.7473 98.3494 98.7473 96.3205V56.2369C98.7473 55.9255 98.6235 55.627 98.4033 55.4066ZM88.7264 49.051L94.7378 55.0625H90.0574C89.3235 55.0625 88.7264 54.4655 88.7264 53.7316V49.051ZM58.8203 48.7212V71.292C56.3891 72.1587 53.8387 72.5991 51.2264 72.5991C38.7508 72.5991 28.6012 62.4495 28.6012 49.9738C28.6012 37.4982 38.7506 27.3486 51.2264 27.3486C56.6449 27.3486 61.8865 29.2936 65.986 32.8253C69.6912 36.0172 72.2584 40.3152 73.3114 45.0417H62.4999C60.4709 45.0417 58.8203 46.6924 58.8203 48.7212ZM96.3985 96.3205C96.3985 97.0543 95.8015 97.6514 95.0676 97.6514H62.4999C61.766 97.6514 61.1689 97.0543 61.1689 96.3205V48.7212C61.1689 47.9874 61.766 47.3903 62.4999 47.3903H86.3777V53.7316C86.3777 55.7605 88.0283 57.4111 90.0572 57.4111H96.3985V96.3205Z" fill="#F5DEB3"/>
<circle cx="62.5" cy="62.5" r="61.5" stroke="#F5DEB3" stroke-width="2"/>
</svg>
