<svg width="125" height="125" viewBox="0 0 125 125" fill="none" xmlns="http://www.w3.org/2000/svg">
<path d="M87.0676 60H86.9625V50.3381C86.9625 47.8937 86.3632 45.5249 85.1818 43.2978C85.1777 43.2903 85.1696 43.2859 85.1652 43.2784L84.4582 36.0302L97.7075 32.7193C98.3615 32.5559 98.7996 32.0327 98.7635 31.4546C98.7273 30.8765 98.2276 30.3956 97.5563 30.2912L63.6242 25.0209C63.4443 24.9927 63.2598 24.9927 63.0795 25.0227L30.6227 30.2931C29.957 30.4012 29.4643 30.879 29.4285 31.4521C29.3909 32.0252 29.8191 32.5459 30.4656 32.7149L32.5185 33.2512V46.9C30.6268 47.3878 29.2378 48.8621 29.2378 50.6221C29.2378 52.0668 30.1779 53.3165 31.557 53.9931L29.5303 58.2859C29.2278 58.9268 29.5967 59.6543 30.3528 59.9106C30.5313 59.9715 30.7172 60.0009 30.9001 60.0009C31.4851 60.0009 32.0398 59.7031 32.2703 59.2146L33.8511 55.8662L35.4311 59.214C35.6616 59.7028 36.2164 60.0009 36.8013 60.0009C36.9843 60.0009 37.1701 59.9715 37.3487 59.9112C38.1051 59.655 38.474 58.9275 38.1711 58.2865L36.1448 53.9931C37.5239 53.3165 38.4636 52.0668 38.4636 50.6225C38.4636 48.9512 37.2137 47.5331 35.4684 46.9756V34.0221L42.2784 35.8015L41.5474 43.2921C40.3631 45.5184 39.7516 47.8868 39.7516 50.3384V60.0037C35.6812 60.0234 32.375 62.8315 32.375 66.285C32.375 69.7384 35.6812 72.5472 39.7516 72.5668V73.899C39.7516 79.6059 43.4384 84.8262 49.3728 87.5228L50.3682 87.9762C51.2435 88.3737 52.1386 88.72 53.0437 89.0337V98.75C53.0437 99.4403 53.7035 100 54.519 100C55.3345 100 55.9943 99.4403 55.9943 98.75V89.8959C58.4799 90.4944 61.0303 90.8044 63.5826 90.8044C65.987 90.8044 68.3888 90.5356 70.733 90.0059V98.75C70.733 99.4403 71.3928 100 72.2083 100C73.0238 100 73.6836 99.4403 73.6836 98.75V89.1831C74.9089 88.7781 76.1124 88.3044 77.2812 87.7472L77.6614 87.5666C83.3985 84.8322 86.9614 79.6687 86.9614 74.0919V72.5703H87.0665C91.1568 72.5703 94.4847 69.7506 94.4847 66.285C94.4847 62.8193 91.1579 60 87.0676 60ZM33.8514 52.0306C32.9353 52.0306 32.1888 51.399 32.1888 50.6218C32.1888 49.8456 32.9349 49.2137 33.8514 49.2137C34.768 49.2137 35.5141 49.8453 35.5141 50.6218C35.5141 51.399 34.768 52.0306 33.8514 52.0306ZM83.7677 47.9931C83.9145 48.7646 84.0123 49.5446 84.0123 50.3381V59.9081C81.1457 59.4187 74.2276 57.565 63.1595 50.6128C69.9102 50.5293 76.9798 49.6584 83.7677 47.9931ZM63.3635 27.5218L90.9377 31.8046L63.3679 38.6943L36.9924 31.8043L63.3635 27.5218ZM50.0798 37.8393V41.2499C50.0798 41.9403 50.7397 42.4999 51.5551 42.4999C52.3706 42.4999 53.0304 41.9403 53.0304 41.2499V38.6099L62.9224 41.1943C63.0651 41.2315 63.2104 41.2499 63.3576 41.2499C63.4988 41.2499 63.6386 41.2328 63.7755 41.1987L72.2094 39.0909V41.2499C72.2094 41.9403 72.8693 42.4999 73.6847 42.4999C74.5002 42.4999 75.16 41.9403 75.16 41.2499V38.3537L81.5666 36.7528L82.4429 45.7228C69.0685 48.9162 54.6643 48.9437 44.2649 45.7984L45.1678 36.5559L50.0798 37.8393ZM42.7033 50.3381C42.7033 49.5587 42.7992 48.7934 42.9404 48.0362C43.8514 48.3196 44.7912 48.5793 45.7579 48.8162C44.6798 49.7103 43.6254 50.7875 42.7033 52.059V50.3381ZM35.3268 66.2847C35.3268 64.21 37.3088 62.5231 39.7527 62.5034V70.0665C37.3088 70.0472 35.3268 68.36 35.3268 66.2847ZM76.2175 85.3869L75.8372 85.5675C68.3426 89.1406 59.3436 89.2156 51.7639 85.7731L50.7684 85.3197C45.7937 83.059 42.7033 78.6828 42.7033 73.8987V61.3384C42.7033 55.3025 46.1618 51.6278 49.2245 49.555C52.0534 50.0593 55.059 50.3781 58.1686 50.5262C72.0969 59.8556 80.6401 61.9759 84.0123 62.4522V74.0915C84.0119 78.7672 81.0255 83.095 76.2175 85.3869ZM87.0676 70.0703H86.9625V62.5H87.0676C89.5314 62.5 91.5352 64.1981 91.5352 66.2847C91.5356 68.3722 89.5314 70.0703 87.0676 70.0703Z" fill="#F5DEB3"/>
<path d="M56.6543 55.1758C56.4511 55.0658 51.6523 52.5305 46.1804 55.2974C45.4814 55.6514 45.2524 56.4186 45.6703 57.0111C45.9454 57.4036 46.4352 57.6208 46.9383 57.6208C47.1946 57.6208 47.4554 57.5639 47.6933 57.4446C51.556 55.4883 54.9186 57.2046 55.0713 57.2858C55.7599 57.6539 56.6646 57.483 57.1028 56.9024C57.5406 56.3208 57.3403 55.5474 56.6543 55.1758Z" fill="#F5DEB3"/>
<path d="M53.264 64.4762C52.7023 65.0628 51.8422 65.3715 50.9489 65.3068C50.237 65.2531 49.5931 64.9681 49.1335 64.5037C48.6135 63.9753 47.684 63.9037 47.0559 64.3468C46.4307 64.7899 46.3485 65.5778 46.8715 66.1078C47.8352 67.0843 49.1896 67.6843 50.6866 67.7971C50.8537 67.8099 51.0208 67.8162 51.1864 67.8162C52.8719 67.8162 54.4756 67.1759 55.5518 66.0546C56.0663 65.5193 55.9712 64.7321 55.3386 64.2962C54.7061 63.8587 53.777 63.9428 53.264 64.4762Z" fill="#F5DEB3"/>
<path d="M76.869 64.4762C76.3073 65.0628 75.4472 65.3715 74.5539 65.3068C73.842 65.2531 73.198 64.9681 72.7385 64.5037C72.2184 63.9753 71.289 63.9037 70.6609 64.3468C70.0357 64.7899 69.9535 65.5778 70.4765 66.1078C71.4402 67.0843 72.7945 67.6843 74.2916 67.7971C74.4587 67.8099 74.6258 67.8162 74.7914 67.8162C76.4769 67.8162 78.0806 67.1759 79.1568 66.0546C79.6713 65.5193 79.5762 64.7321 78.9436 64.2962C78.3111 63.8587 77.382 63.9428 76.869 64.4762Z" fill="#F5DEB3"/>
<path d="M65.0667 75.7263C64.505 76.3129 63.6449 76.621 62.7516 76.5569C62.0398 76.5032 61.3958 76.2182 60.9362 75.7538C60.4162 75.226 59.4867 75.1532 58.8586 75.5969C58.2335 76.04 58.1512 76.8279 58.6742 77.3579C59.638 78.3344 60.9923 78.9344 62.4894 79.0472C62.6564 79.0601 62.8235 79.0663 62.9891 79.0663C64.6747 79.0663 66.2783 78.426 67.3546 77.3047C67.8691 76.7694 67.7739 75.9822 67.1414 75.5463C66.5103 75.1094 65.5798 75.1929 65.0667 75.7263Z" fill="#F5DEB3"/>
<circle cx="62.5" cy="62.5" r="61.5" stroke="#F5DEB3" stroke-width="2"/>
</svg>
