<svg width="115" height="115" viewBox="0 0 115 115" fill="none" xmlns="http://www.w3.org/2000/svg">
<g clip-path="url(#clip0_522_147)">
<path d="M99.6862 60.9386L89.6256 88.5798L84.5534 86.7336L93.5175 62.105L93.5731 61.9522L93.4117 61.9715L83.966 63.1006L83.9049 63.1079L83.8839 63.1657L76.246 84.1505L45.8613 88.819L25.5861 65.7118L33.2239 44.7269L33.2443 44.6711L33.2049 44.6265L22.8483 32.9084L68.7578 25.9117L99.6862 60.9386ZM55.575 61.99L55.6111 62.0313L55.6652 62.023L88.7692 56.9953L88.9519 56.9675L88.8288 56.8298L66.6057 31.9625L66.5698 31.9223L66.5166 31.9302L33.6837 36.7587L33.502 36.7854L33.623 36.9235L55.575 61.99ZM47.9167 83.0304L47.953 83.072L48.0076 83.0635L72.2238 79.2686L72.2821 79.2594L72.3023 79.204L77.663 64.4756L77.7201 64.3188L77.5549 64.3424L53.5196 67.779L37.3801 49.5218L37.2687 49.3958L37.2112 49.5538L31.7867 64.4575L31.7665 64.513L31.8053 64.5574L47.9167 83.0304Z" fill="#F5DEB3"/>
</g>
<defs>
<clipPath id="clip0_522_147">
<rect width="89.5634" height="89.5634" fill="white" transform="translate(30.6323) rotate(20)"/>
</clipPath>
</defs>
</svg>
