<svg width="183" height="86" viewBox="0 0 183 86" fill="none" xmlns="http://www.w3.org/2000/svg">
<g clip-path="url(#clip0_509_8)">
<path d="M38.2674 64.5915C53.4789 64.5915 65.8102 52.2602 65.8102 37.0487C65.8102 21.8372 53.4789 9.50591 38.2674 9.50591C23.0559 9.50591 10.7246 21.8372 10.7246 37.0487C10.7246 52.2602 23.0559 64.5915 38.2674 64.5915Z" fill="black"/>
<path d="M59.0917 31.4475L57.733 73.8613L21.6809 51.4777L59.0917 31.4475Z" fill="#F5DEB3"/>
<path d="M19.7716 -0.000109749L0 32.3416L32.3417 52.1132L52.1133 19.7715L19.7716 -0.000109749Z" fill="#CDAD72"/>
<path d="M36.2876 17.5816C33.4703 17.9738 31.1093 19.4794 29.8768 21.6784C29.0604 23.135 28.8924 24.0454 29.0284 26.3844C29.1485 28.5273 29.0444 29.2906 28.4122 30.7543C27.5478 32.7501 27.3637 33.9547 27.6278 35.9995L27.7319 36.8049L27.4918 37.106C27.3637 37.2741 27.2276 37.3861 27.1956 37.3511C27.1636 37.3231 26.9875 36.945 26.7955 36.5248C26.6034 36.0976 26.3633 35.6074 26.2672 35.4323C25.619 34.2838 23.7782 34.2278 22.9938 35.3273C22.7857 35.6284 22.7537 35.7404 22.7537 36.1676C22.7537 36.5038 22.8017 36.7349 22.8978 36.8889L23.0418 37.12H22.2175C21.2731 37.12 20.8329 37.029 19.9925 36.6718C19.0721 36.2797 18.4879 36.3567 17.9596 36.9309L17.7115 37.2041L17.6875 38.3175C17.6555 39.6201 17.7436 39.9422 18.2078 40.3694C18.832 40.9297 20.7448 41.602 21.7293 41.602H22.1535V42.4423C22.1535 42.9045 22.0414 44.5012 21.9134 45.9999C21.7773 47.4915 21.6893 48.8501 21.7133 49.0252C21.8333 49.8025 22.4896 50.5588 23.338 50.902C23.7381 51.07 23.8982 51.0911 24.5945 51.0911C25.2428 51.0911 25.4669 51.063 25.763 50.944C26.5313 50.6289 26.6674 50.4608 28.4042 47.6246C29.3005 46.1609 30.0529 44.9634 30.0769 44.9634C30.1009 44.9634 30.1969 45.1945 30.301 45.4746C30.405 45.7548 30.6291 46.1819 30.8052 46.42L31.1173 46.8612V48.9901V51.1261H31.7576H32.3979V48.8081V46.4901L32.0137 45.9859C31.4615 45.2645 31.3174 44.8233 31.3174 43.8429C31.3174 43.2407 31.3574 42.9325 31.4695 42.6244C31.6536 42.1482 32.0857 41.5319 32.5179 41.1678L32.8221 40.9087L32.3899 40.4745L31.9657 40.0403L31.4615 40.5095C31.0693 40.8806 30.8292 41.2168 30.325 42.0782C29.9808 42.6804 29.1485 44.06 28.4842 45.1385L27.2757 47.0993V43.7029V40.3064L27.7719 39.2209C28.3241 38.0094 28.4922 37.7433 28.9324 37.3651C29.6847 36.7279 30.341 36.5598 32.0777 36.5598L33.3183 36.5668L35.1991 39.5921C37.224 42.8485 37.216 42.8415 37.7442 42.6804C37.9203 42.6314 38.1043 42.3863 38.6806 41.4619L39.4009 40.3064L39.4409 44.1791C39.4809 47.9957 39.4809 48.0587 39.649 48.1778C39.745 48.2408 40.3853 48.3879 41.2257 48.535L42.6423 48.7731V49.9496V51.1261H43.2826H43.9228V50.0756C43.9228 49.4944 43.9549 49.0252 43.9869 49.0252C44.0269 49.0252 44.5951 49.1232 45.2434 49.2353C45.9557 49.3613 46.676 49.4453 47.0522 49.4453H47.6765L47.9326 49.8725C48.893 51.4412 51.27 51.5533 52.3985 50.0756L52.7427 49.6204L53.559 49.5014C53.9992 49.4313 54.4474 49.3613 54.5434 49.3403C54.8476 49.2773 55.2797 48.8921 55.3758 48.598C55.4318 48.4509 55.5199 48.3249 55.5839 48.3249C55.6479 48.3249 55.784 48.2478 55.888 48.1498L56.0881 47.9817V43.0026V38.0234L55.888 37.8553C55.784 37.7573 55.6159 37.6803 55.5118 37.6803C55.0156 37.6803 49.1731 38.5977 48.845 38.7237C48.4288 38.8848 48.4768 38.9268 48.1247 38.1145C48.0046 37.8343 47.7725 37.4282 47.6044 37.2041L47.3083 36.8049L47.4124 35.9995C47.6765 33.9757 47.4684 32.6101 46.636 30.7613C46.0198 29.4027 45.8837 28.4503 46.0117 26.3214C46.1398 24.1294 45.9877 23.184 45.2834 21.8744C44.179 19.8156 42.1141 18.3099 39.617 17.7497C38.7446 17.5536 37.1119 17.4695 36.2876 17.5816ZM39.3209 18.8351C40.0252 18.9962 41.0736 19.4094 41.6659 19.7665C42.9224 20.5159 44.0029 21.8114 44.4671 23.121C44.7872 24.0174 44.8352 24.6056 44.7312 26.3284C44.6111 28.4013 44.7232 29.3887 45.2354 30.6562C45.3475 30.9153 45.5636 31.4476 45.7156 31.8327C46.1398 32.8832 46.2679 33.6675 46.2198 34.8651C46.1958 35.4183 46.1558 35.8875 46.1318 35.9085C46.1078 35.9295 45.9237 35.8805 45.7236 35.7965C45.0113 35.5023 44.4671 35.4393 42.6423 35.4393C41.4018 35.4393 40.8895 35.4183 40.8175 35.3553C40.7535 35.2992 40.7215 34.9281 40.7215 34.1367V33.0093L41.1456 32.7641C42.5142 31.9658 43.5707 30.4882 43.8348 29.0175C43.8828 28.7444 43.9228 27.757 43.9228 26.8396C43.9228 25.3409 43.9068 25.1449 43.7788 25.0048C43.6747 24.8857 43.4186 24.8157 42.6423 24.6827C40.1212 24.2415 37.6001 23.198 35.6633 21.7834C34.927 21.2442 34.6388 21.3002 34.1906 22.0845C33.6064 23.086 32.766 23.9964 31.8536 24.5916C31.0613 25.1098 31.1173 24.9278 31.1173 26.8956C31.1173 28.7934 31.1814 29.2906 31.5655 30.18C31.9737 31.1464 32.9261 32.1969 33.9025 32.7641L34.3187 33.0093V34.1367C34.3187 34.9281 34.2867 35.2992 34.2227 35.3553C34.1506 35.4183 33.6384 35.4393 32.3979 35.4393C30.5891 35.4393 30.0929 35.4953 29.3245 35.7895C29.1085 35.8665 28.9084 35.9155 28.8844 35.8875C28.8603 35.8665 28.8363 35.2782 28.8363 34.5779C28.8443 33.1143 28.9324 32.6731 29.5406 31.3005C30.293 29.5988 30.445 28.6254 30.309 26.3284C30.2369 25.0958 30.2369 24.6126 30.309 24.1644C30.7732 21.3842 33.1022 19.2623 36.2635 18.7301C37.0479 18.597 38.4965 18.6531 39.3209 18.8351ZM35.8554 23.3241C37.7202 24.4936 39.9291 25.3269 42.4262 25.8101L42.6583 25.8522L42.6263 27.4419C42.5943 28.9475 42.5863 29.0595 42.3862 29.5428C42.0901 30.2711 41.7219 30.7753 41.1216 31.3075C40.5134 31.8327 39.9371 32.1549 39.1048 32.414C38.6006 32.5681 38.3925 32.5961 37.5601 32.6031C36.7838 32.6031 36.4956 32.5751 36.0394 32.449C34.7349 32.0849 33.5664 31.2235 32.9741 30.187C32.4859 29.3327 32.3979 28.8845 32.3979 27.1337V25.6631L32.9261 25.2779C33.5744 24.8157 34.3827 24.0104 34.8229 23.3801C35.007 23.121 35.1671 22.9039 35.1751 22.9039C35.1831 22.9039 35.4872 23.093 35.8554 23.3241ZM37.5201 33.7096C38.2404 33.7096 38.7446 33.6745 39.0247 33.6045L39.4409 33.4995V34.4869C39.4409 35.6214 39.537 35.9015 40.0412 36.2587L40.3373 36.4757L39.9611 37.078L39.585 37.6803H37.5201H35.4552L35.079 37.078L34.7029 36.4757L34.999 36.2587C35.5032 35.9015 35.5993 35.6214 35.5993 34.4869V33.4995L36.0234 33.6045C36.2956 33.6745 36.7998 33.7096 37.5201 33.7096ZM25.0107 35.8035C25.0987 35.8945 25.3548 36.3707 25.5869 36.8749L25.9951 37.7853V39.1299V40.4815H23.6981C22.0254 40.4815 21.2811 40.4535 20.993 40.3834C20.4327 40.2574 19.1362 39.6691 19.0321 39.5081C18.9281 39.326 18.9201 37.5402 19.0321 37.5402C19.0801 37.5402 19.3362 37.6382 19.6004 37.7573C20.4887 38.1425 21.113 38.2405 22.8097 38.2405C24.3064 38.2405 24.3224 38.2405 24.5145 38.0654C24.7946 37.8273 24.7626 37.6242 24.3544 36.9099C24.1543 36.5668 23.9943 36.2166 23.9943 36.1396C23.9943 35.9225 24.3464 35.6494 24.6185 35.6494C24.7546 35.6494 24.9146 35.7124 25.0107 35.8035ZM45.0673 36.7629C45.7396 36.994 46.4199 37.5682 46.7641 38.2055C46.9161 38.4856 47.0442 38.7447 47.0442 38.7867C47.0442 38.8288 46.9001 38.8078 46.684 38.7237C46.4679 38.6397 45.2514 38.4296 43.6427 38.1915L40.9696 37.7993L41.3457 37.1761L41.7219 36.5528L43.1625 36.5808C44.4271 36.6018 44.6592 36.6228 45.0673 36.7629ZM38.6566 39.1649C38.5285 39.368 38.2324 39.8442 38.0083 40.2154C37.7762 40.5935 37.5601 40.9017 37.5201 40.9017C37.4801 40.9017 37.264 40.5935 37.0319 40.2154C36.8078 39.8442 36.5117 39.368 36.3836 39.1649L36.1435 38.8008H37.5201H38.8967L38.6566 39.1649ZM43.3866 39.291C44.7152 39.487 45.9557 39.6901 46.1398 39.7532C46.4439 39.8512 46.9642 40.2784 46.9642 40.4255C46.9642 40.5375 46.556 40.4815 43.6667 39.9773L40.7215 39.466V39.2069C40.7215 39.0108 40.7535 38.9408 40.8495 38.9408C40.9135 38.9408 42.058 39.1019 43.3866 39.291ZM54.8075 39.2069V39.466L51.8703 39.9773C49.0291 40.4675 48.5649 40.5305 48.5649 40.4325C48.5649 40.3204 48.997 39.9072 49.2291 39.8022C49.4612 39.6971 54.0552 38.9618 54.5915 38.9478C54.7915 38.9408 54.8075 38.9618 54.8075 39.2069ZM43.4667 41.0767L45.8437 41.4969V44.8444V48.1988L45.6676 48.1708C45.5636 48.1568 44.4111 47.9537 43.1065 47.7226L40.7215 47.3094V43.955V40.6075L40.9055 40.6355C41.0016 40.6495 42.1541 40.8526 43.4667 41.0767ZM54.8075 42.8905V45.1595L54.4554 45.0474C54.1192 44.9424 54.0312 44.9424 52.9507 45.0895C51.4701 45.2996 51.0459 45.4046 50.7898 45.6427C50.4056 45.9929 50.3256 46.28 50.3256 47.2394C50.3256 47.7226 50.2936 48.1148 50.2536 48.1148C50.2136 48.1148 50.0695 48.1358 49.9334 48.1568L49.6853 48.1988V44.8514V41.4969L52.1504 41.0627C53.503 40.8246 54.6555 40.6285 54.7115 40.6285C54.7835 40.6215 54.8075 41.1188 54.8075 42.8905ZM25.9951 42.1622V42.7224H24.7146H23.434V42.1622V41.602H24.7146H25.9951V42.1622ZM48.4048 44.9634V48.3249H47.7645H47.1242V44.9634V41.602H47.7645H48.4048V44.9634ZM25.9951 46.364C25.9951 48.4859 25.9791 48.9341 25.8751 49.1512C25.3308 50.2717 23.6101 50.2717 23.0739 49.1372C22.9538 48.8921 22.9618 48.703 23.1619 46.357L23.386 43.8429H24.6906H25.9951V46.364ZM54.1272 47.2044V48.2828L52.8707 48.4719L51.6062 48.654V47.5825C51.6062 46.8052 51.6302 46.4971 51.7102 46.4551C51.8383 46.378 53.6711 46.0909 53.9272 46.1049L54.1272 46.1189V47.2044ZM50.5657 49.3053C50.5657 49.3403 50.6938 49.4453 50.8538 49.5434L51.142 49.7115L50.9339 49.8305C50.4617 50.1036 49.7334 50.0266 49.3252 49.6554L49.1011 49.4523L49.2932 49.4103C50.2296 49.2212 50.5657 49.1932 50.5657 49.3053Z" fill="black"/>
<path d="M34.2788 25.9782C33.9186 26.1183 33.7185 26.3984 33.7185 26.7626C33.7185 27.0567 33.7586 27.1337 33.9827 27.3298C34.2067 27.5259 34.2948 27.5609 34.6389 27.5609C34.9831 27.5609 35.0711 27.5259 35.2952 27.3298C35.5193 27.1337 35.5593 27.0567 35.5593 26.7556C35.5593 26.4614 35.5193 26.3774 35.3112 26.1883C35.0471 25.9572 34.5749 25.8662 34.2788 25.9782Z" fill="black"/>
<path d="M40.0413 25.9782C39.6811 26.1183 39.481 26.3984 39.481 26.7626C39.481 27.0567 39.521 27.1337 39.7451 27.3298C39.9692 27.5259 40.0573 27.5609 40.4014 27.5609C40.7456 27.5609 40.8336 27.5259 41.0577 27.3298C41.2818 27.1337 41.3218 27.0567 41.3218 26.7556C41.3218 26.4614 41.2818 26.3774 41.0737 26.1883C40.8096 25.9572 40.3374 25.8662 40.0413 25.9782Z" fill="black"/>
<path d="M35.5994 28.8285C35.5994 29.1576 35.8235 29.5428 36.1996 29.8719C36.7839 30.3901 37.4081 30.5162 38.1845 30.2851C38.8007 30.103 39.441 29.3607 39.441 28.8285C39.441 28.7374 39.345 28.7164 38.8248 28.7164C38.2005 28.7164 38.2005 28.7164 38.0804 28.9475C37.9364 29.2136 37.6162 29.3327 37.3041 29.2346C37.176 29.1996 37.032 29.0736 36.96 28.9475C36.8399 28.7164 36.8399 28.7164 36.2236 28.7164C35.6954 28.7164 35.5994 28.7374 35.5994 28.8285Z" fill="black"/>
<path d="M77.22 46L77.52 29.8H79.74L82.6 42.94L85.48 29.8H87.68L87.98 46H86.16L85.98 34.24L83.24 46H81.96L79.24 34.24L79.06 46H77.22Z" fill="black"/>
<path d="M93.163 46.16C92.7097 46.16 92.3097 46.0333 91.963 45.78C91.6164 45.5133 91.343 45.18 91.143 44.78C90.943 44.3667 90.843 43.9333 90.843 43.48C90.843 42.76 90.963 42.1533 91.203 41.66C91.443 41.1667 91.7697 40.7533 92.183 40.42C92.6097 40.0733 93.0964 39.7733 93.643 39.52C94.203 39.2667 94.7897 39.02 95.403 38.78V37.96C95.403 37.4933 95.3764 37.1067 95.323 36.8C95.2697 36.4933 95.1564 36.2667 94.983 36.12C94.823 35.96 94.5764 35.88 94.243 35.88C93.9497 35.88 93.7097 35.9467 93.523 36.08C93.3497 36.2133 93.223 36.4067 93.143 36.66C93.063 36.9 93.023 37.1867 93.023 37.52V38.1L90.903 38.02C90.9297 36.74 91.223 35.8 91.783 35.2C92.343 34.5867 93.2097 34.28 94.383 34.28C95.5297 34.28 96.343 34.5933 96.823 35.22C97.303 35.8467 97.543 36.7533 97.543 37.94V43.22C97.543 43.58 97.5497 43.9267 97.563 44.26C97.5897 44.5933 97.6164 44.9067 97.643 45.2C97.683 45.48 97.7164 45.7467 97.743 46H95.783C95.743 45.7867 95.6897 45.52 95.623 45.2C95.5697 44.8667 95.5297 44.5667 95.503 44.3C95.3697 44.7533 95.1097 45.18 94.723 45.58C94.3497 45.9667 93.8297 46.16 93.163 46.16ZM94.003 44.32C94.2164 44.32 94.4164 44.26 94.603 44.14C94.7897 44.02 94.9564 43.8867 95.103 43.74C95.2497 43.58 95.3497 43.4533 95.403 43.36V40.08C95.0697 40.2667 94.7564 40.4533 94.463 40.64C94.1697 40.8267 93.9097 41.0267 93.683 41.24C93.4697 41.44 93.2964 41.6733 93.163 41.94C93.043 42.1933 92.983 42.4867 92.983 42.82C92.983 43.2867 93.0697 43.6533 93.243 43.92C93.4164 44.1867 93.6697 44.32 94.003 44.32Z" fill="black"/>
<path d="M103.323 46.16C102.723 46.16 102.236 46.0467 101.863 45.82C101.503 45.5933 101.236 45.2733 101.063 44.86C100.903 44.4467 100.823 43.96 100.823 43.4V35.86H99.6025V34.44H100.823V31.06H102.963V34.44H104.823V35.86H102.963V43.26C102.963 43.7133 103.036 44.04 103.183 44.24C103.329 44.4267 103.609 44.52 104.023 44.52C104.129 44.52 104.249 44.5133 104.383 44.5C104.529 44.4867 104.669 44.4733 104.803 44.46V46.04C104.536 46.08 104.289 46.1067 104.063 46.12C103.836 46.1467 103.589 46.16 103.323 46.16Z" fill="black"/>
<path d="M107.255 46V29.8H109.395V35.64C109.782 35.2667 110.215 34.9467 110.695 34.68C111.175 34.4133 111.708 34.28 112.295 34.28C112.748 34.28 113.095 34.4 113.335 34.64C113.588 34.88 113.762 35.18 113.855 35.54C113.962 35.9 114.015 36.2667 114.015 36.64V46H111.875V37.26C111.875 36.8467 111.815 36.5267 111.695 36.3C111.575 36.0733 111.328 35.96 110.955 35.96C110.702 35.96 110.435 36.0333 110.155 36.18C109.888 36.3267 109.635 36.5067 109.395 36.72V46H107.255Z" fill="black"/>
<path d="M120.481 46.18C119.748 46.18 119.114 46.0267 118.581 45.72C118.061 45.4 117.661 44.9667 117.381 44.42C117.114 43.8733 116.981 43.2467 116.981 42.54C116.981 41.5133 117.208 40.6267 117.661 39.88C118.128 39.12 118.688 38.4467 119.341 37.86C119.101 37.38 118.841 36.9 118.561 36.42C118.294 35.9267 118.061 35.42 117.861 34.9C117.674 34.3667 117.581 33.8133 117.581 33.24C117.581 32.52 117.721 31.8933 118.001 31.36C118.281 30.8267 118.681 30.4133 119.201 30.12C119.721 29.8133 120.334 29.66 121.041 29.66C121.694 29.66 122.274 29.78 122.781 30.02C123.301 30.26 123.714 30.6067 124.021 31.06C124.328 31.5 124.481 32.0333 124.481 32.66C124.481 33.3667 124.314 34.0467 123.981 34.7C123.661 35.34 123.268 35.94 122.801 36.5C122.334 37.0467 121.881 37.5333 121.441 37.96L123.881 41.8C124.028 41.52 124.148 41.2067 124.241 40.86C124.348 40.5 124.434 40.12 124.501 39.72C124.581 39.32 124.641 38.9333 124.681 38.56H126.801C126.801 39.08 126.721 39.6267 126.561 40.2C126.414 40.7733 126.221 41.32 125.981 41.84C125.741 42.3467 125.494 42.78 125.241 43.14C125.414 43.3533 125.641 43.5467 125.921 43.72C126.201 43.88 126.501 43.96 126.821 43.96V46.16C126.768 46.16 126.714 46.16 126.661 46.16C126.621 46.16 126.581 46.16 126.541 46.16C126.154 46.1467 125.808 46.06 125.501 45.9C125.194 45.7267 124.914 45.52 124.661 45.28C124.421 45.04 124.188 44.8133 123.961 44.6C123.601 45.0533 123.128 45.4333 122.541 45.74C121.968 46.0333 121.281 46.18 120.481 46.18ZM120.481 44.4C120.988 44.4 121.414 44.28 121.761 44.04C122.108 43.7867 122.408 43.5067 122.661 43.2L120.181 39.38C119.861 39.7933 119.601 40.28 119.401 40.84C119.214 41.3867 119.121 41.9533 119.121 42.54C119.121 42.8467 119.161 43.1467 119.241 43.44C119.321 43.72 119.461 43.9533 119.661 44.14C119.861 44.3133 120.134 44.4 120.481 44.4ZM120.701 36.8C120.981 36.4667 121.241 36.0733 121.481 35.62C121.734 35.1667 121.941 34.6867 122.101 34.18C122.261 33.66 122.341 33.1533 122.341 32.66C122.341 32.2733 122.221 31.9733 121.981 31.76C121.741 31.5333 121.428 31.42 121.041 31.42C120.561 31.42 120.221 31.6067 120.021 31.98C119.821 32.3533 119.721 32.7733 119.721 33.24C119.721 33.8533 119.821 34.4667 120.021 35.08C120.234 35.68 120.461 36.2533 120.701 36.8Z" fill="black"/>
<path d="M129.97 46L130.27 29.8H132.49L135.35 42.94L138.23 29.8H140.43L140.73 46H138.91L138.73 34.24L135.99 46H134.71L131.99 34.24L131.81 46H129.97Z" fill="black"/>
<path d="M145.913 46.16C145.46 46.16 145.06 46.0333 144.713 45.78C144.366 45.5133 144.093 45.18 143.893 44.78C143.693 44.3667 143.593 43.9333 143.593 43.48C143.593 42.76 143.713 42.1533 143.953 41.66C144.193 41.1667 144.52 40.7533 144.933 40.42C145.36 40.0733 145.846 39.7733 146.393 39.52C146.953 39.2667 147.54 39.02 148.153 38.78V37.96C148.153 37.4933 148.126 37.1067 148.073 36.8C148.02 36.4933 147.906 36.2667 147.733 36.12C147.573 35.96 147.326 35.88 146.993 35.88C146.7 35.88 146.46 35.9467 146.273 36.08C146.1 36.2133 145.973 36.4067 145.893 36.66C145.813 36.9 145.773 37.1867 145.773 37.52V38.1L143.653 38.02C143.68 36.74 143.973 35.8 144.533 35.2C145.093 34.5867 145.96 34.28 147.133 34.28C148.28 34.28 149.093 34.5933 149.573 35.22C150.053 35.8467 150.293 36.7533 150.293 37.94V43.22C150.293 43.58 150.3 43.9267 150.313 44.26C150.34 44.5933 150.366 44.9067 150.393 45.2C150.433 45.48 150.466 45.7467 150.493 46H148.533C148.493 45.7867 148.44 45.52 148.373 45.2C148.32 44.8667 148.28 44.5667 148.253 44.3C148.12 44.7533 147.86 45.18 147.473 45.58C147.1 45.9667 146.58 46.16 145.913 46.16ZM146.753 44.32C146.966 44.32 147.166 44.26 147.353 44.14C147.54 44.02 147.706 43.8867 147.853 43.74C148 43.58 148.1 43.4533 148.153 43.36V40.08C147.82 40.2667 147.506 40.4533 147.213 40.64C146.92 40.8267 146.66 41.0267 146.433 41.24C146.22 41.44 146.046 41.6733 145.913 41.94C145.793 42.1933 145.733 42.4867 145.733 42.82C145.733 43.2867 145.82 43.6533 145.993 43.92C146.166 44.1867 146.42 44.32 146.753 44.32Z" fill="black"/>
<path d="M156.073 46.16C155.473 46.16 154.986 46.0467 154.612 45.82C154.252 45.5933 153.986 45.2733 153.812 44.86C153.652 44.4467 153.573 43.96 153.573 43.4V35.86H152.353V34.44H153.573V31.06H155.713V34.44H157.573V35.86H155.713V43.26C155.713 43.7133 155.786 44.04 155.932 44.24C156.079 44.4267 156.359 44.52 156.772 44.52C156.879 44.52 156.999 44.5133 157.132 44.5C157.279 44.4867 157.419 44.4733 157.552 44.46V46.04C157.286 46.08 157.039 46.1067 156.812 46.12C156.586 46.1467 156.339 46.16 156.073 46.16Z" fill="black"/>
<path d="M160.085 46V34.44H162.225V46H160.085ZM160.085 32.72V30.48H162.225V32.72H160.085Z" fill="black"/>
<path d="M165.495 46V29.8H167.755V37.44L171.475 29.8H173.575L170.375 36.94L174.095 46H171.895L168.795 38.4L167.755 40.28V46H165.495Z" fill="black"/>
<path d="M178.098 46.16C177.644 46.16 177.244 46.0333 176.897 45.78C176.551 45.5133 176.277 45.18 176.077 44.78C175.877 44.3667 175.777 43.9333 175.777 43.48C175.777 42.76 175.897 42.1533 176.137 41.66C176.377 41.1667 176.704 40.7533 177.118 40.42C177.544 40.0733 178.031 39.7733 178.577 39.52C179.137 39.2667 179.724 39.02 180.338 38.78V37.96C180.338 37.4933 180.311 37.1067 180.257 36.8C180.204 36.4933 180.091 36.2667 179.918 36.12C179.758 35.96 179.511 35.88 179.177 35.88C178.884 35.88 178.644 35.9467 178.457 36.08C178.284 36.2133 178.157 36.4067 178.077 36.66C177.997 36.9 177.957 37.1867 177.957 37.52V38.1L175.838 38.02C175.864 36.74 176.157 35.8 176.717 35.2C177.277 34.5867 178.144 34.28 179.317 34.28C180.464 34.28 181.277 34.5933 181.757 35.22C182.237 35.8467 182.478 36.7533 182.478 37.94V43.22C182.478 43.58 182.484 43.9267 182.497 44.26C182.524 44.5933 182.551 44.9067 182.577 45.2C182.617 45.48 182.651 45.7467 182.677 46H180.717C180.677 45.7867 180.624 45.52 180.558 45.2C180.504 44.8667 180.464 44.5667 180.438 44.3C180.304 44.7533 180.044 45.18 179.658 45.58C179.284 45.9667 178.764 46.16 178.098 46.16ZM178.938 44.32C179.151 44.32 179.351 44.26 179.537 44.14C179.724 44.02 179.891 43.8867 180.037 43.74C180.184 43.58 180.284 43.4533 180.338 43.36V40.08C180.004 40.2667 179.691 40.4533 179.397 40.64C179.104 40.8267 178.844 41.0267 178.618 41.24C178.404 41.44 178.231 41.6733 178.098 41.94C177.978 42.1933 177.918 42.4867 177.918 42.82C177.918 43.2867 178.004 43.6533 178.177 43.92C178.351 44.1867 178.604 44.32 178.938 44.32Z" fill="black"/>
<path d="M78.1299 56.08C77.7032 56.08 77.3666 55.9933 77.1199 55.82C76.8732 55.6467 76.6966 55.4 76.5899 55.08C76.4899 54.76 76.4399 54.3833 76.4399 53.95V52.27C76.4399 51.8367 76.4899 51.46 76.5899 51.14C76.6966 50.82 76.8732 50.5733 77.1199 50.4C77.3666 50.2267 77.7032 50.14 78.1299 50.14C78.5566 50.14 78.8899 50.2267 79.1299 50.4C79.3766 50.5733 79.5499 50.82 79.6499 51.14C79.7566 51.46 79.8099 51.8367 79.8099 52.27V53.95C79.8099 54.3833 79.7566 54.76 79.6499 55.08C79.5499 55.4 79.3766 55.6467 79.1299 55.82C78.8899 55.9933 78.5566 56.08 78.1299 56.08ZM78.1299 55.29C78.3366 55.29 78.4799 55.23 78.5599 55.11C78.6466 54.99 78.6966 54.8333 78.7099 54.64C78.7299 54.44 78.7399 54.2333 78.7399 54.02V52.21C78.7399 51.99 78.7299 51.7833 78.7099 51.59C78.6966 51.3967 78.6466 51.24 78.5599 51.12C78.4799 50.9933 78.3366 50.93 78.1299 50.93C77.9232 50.93 77.7766 50.9933 77.6899 51.12C77.6032 51.24 77.5499 51.3967 77.5299 51.59C77.5166 51.7833 77.5099 51.99 77.5099 52.21V54.02C77.5099 54.2333 77.5166 54.44 77.5299 54.64C77.5499 54.8333 77.6032 54.99 77.6899 55.11C77.7766 55.23 77.9232 55.29 78.1299 55.29Z" fill="#333333" fill-opacity="0.3"/>
<path d="M81.188 56V50.22H82.258V52.65H83.628V50.22H84.6981V56H83.628V53.43H82.258V56H81.188Z" fill="#333333" fill-opacity="0.3"/>
<path d="M85.8079 56.05V55.24C86.0079 55.24 86.1646 55.2 86.2779 55.12C86.3979 55.04 86.4879 54.9067 86.5479 54.72C86.6146 54.5267 86.6646 54.27 86.6979 53.95C86.7312 53.6233 86.7612 53.2167 86.7879 52.73L86.9179 50.22H89.9479V56H88.8779V51.03H87.8579L87.7679 52.73C87.7346 53.39 87.6846 53.9367 87.6179 54.37C87.5579 54.8033 87.4612 55.1433 87.3279 55.39C87.1946 55.63 87.0146 55.8 86.7879 55.9C86.5679 56 86.2812 56.05 85.9279 56.05H85.8079Z" fill="#333333" fill-opacity="0.3"/>
<path d="M92.4715 56.08C92.2448 56.08 92.0448 56.0167 91.8715 55.89C91.6982 55.7567 91.5615 55.59 91.4615 55.39C91.3615 55.1833 91.3115 54.9667 91.3115 54.74C91.3115 54.38 91.3715 54.0767 91.4915 53.83C91.6115 53.5833 91.7748 53.3767 91.9815 53.21C92.1948 53.0367 92.4382 52.8867 92.7115 52.76C92.9915 52.6333 93.2848 52.51 93.5915 52.39V51.98C93.5915 51.7467 93.5782 51.5533 93.5515 51.4C93.5248 51.2467 93.4682 51.1333 93.3815 51.06C93.3015 50.98 93.1782 50.94 93.0115 50.94C92.8648 50.94 92.7448 50.9733 92.6515 51.04C92.5648 51.1067 92.5015 51.2033 92.4615 51.33C92.4215 51.45 92.4015 51.5933 92.4015 51.76V52.05L91.3415 52.01C91.3548 51.37 91.5015 50.9 91.7815 50.6C92.0615 50.2933 92.4948 50.14 93.0815 50.14C93.6548 50.14 94.0615 50.2967 94.3015 50.61C94.5415 50.9233 94.6615 51.3767 94.6615 51.97V54.61C94.6615 54.79 94.6648 54.9633 94.6715 55.13C94.6848 55.2967 94.6982 55.4533 94.7115 55.6C94.7315 55.74 94.7482 55.8733 94.7615 56H93.7815C93.7615 55.8933 93.7348 55.76 93.7015 55.6C93.6748 55.4333 93.6548 55.2833 93.6415 55.15C93.5748 55.3767 93.4448 55.59 93.2515 55.79C93.0648 55.9833 92.8048 56.08 92.4715 56.08ZM92.8915 55.16C92.9982 55.16 93.0982 55.13 93.1915 55.07C93.2848 55.01 93.3682 54.9433 93.4415 54.87C93.5148 54.79 93.5648 54.7267 93.5915 54.68V53.04C93.4248 53.1333 93.2682 53.2267 93.1215 53.32C92.9748 53.4133 92.8448 53.5133 92.7315 53.62C92.6248 53.72 92.5382 53.8367 92.4715 53.97C92.4115 54.0967 92.3815 54.2433 92.3815 54.41C92.3815 54.6433 92.4248 54.8267 92.5115 54.96C92.5982 55.0933 92.7248 55.16 92.8915 55.16Z" fill="#333333" fill-opacity="0.3"/>
<path d="M96.0891 56V50.22H96.9891V54.11L98.7291 50.22H99.5691V56H98.6891V52.08L96.9591 56H96.0891ZM97.8591 49.59C97.3791 49.59 97.0391 49.46 96.8391 49.2C96.6458 48.94 96.5491 48.6167 96.5491 48.23H97.1691C97.1758 48.47 97.2291 48.6567 97.3291 48.79C97.4358 48.9167 97.6125 48.98 97.8591 48.98C98.1125 48.98 98.2891 48.9133 98.3891 48.78C98.4958 48.6467 98.5491 48.4633 98.5491 48.23H99.1791C99.1791 48.6167 99.0791 48.94 98.8791 49.2C98.6858 49.46 98.3458 49.59 97.8591 49.59Z" fill="#333333" fill-opacity="0.3"/>
<path d="M101.06 56V50.22H102.13V52.65H103.5V50.22H104.57V56H103.5V53.43H102.13V56H101.06Z" fill="#333333" fill-opacity="0.3"/>
<path d="M105.999 53.39V52.58H108.229V53.39H105.999Z" fill="#333333" fill-opacity="0.3"/>
<path d="M109.662 57.9V50.22H110.732V50.68C110.859 50.5333 111.012 50.4067 111.192 50.3C111.372 50.1933 111.586 50.14 111.832 50.14C112.132 50.14 112.369 50.22 112.542 50.38C112.722 50.5333 112.856 50.73 112.942 50.97C113.029 51.2033 113.086 51.4433 113.112 51.69C113.139 51.93 113.152 52.1367 113.152 52.31V53.71C113.152 54.1167 113.112 54.5033 113.032 54.87C112.952 55.23 112.806 55.5233 112.592 55.75C112.386 55.97 112.092 56.08 111.712 56.08C111.506 56.08 111.322 56.03 111.162 55.93C111.002 55.8233 110.859 55.7033 110.732 55.57V57.9H109.662ZM111.502 55.24C111.689 55.24 111.822 55.1733 111.902 55.04C111.982 54.9 112.032 54.7133 112.052 54.48C112.072 54.2467 112.082 53.99 112.082 53.71V52.31C112.082 52.07 112.069 51.85 112.042 51.65C112.016 51.4433 111.959 51.28 111.872 51.16C111.786 51.04 111.649 50.98 111.462 50.98C111.322 50.98 111.189 51.01 111.062 51.07C110.936 51.13 110.826 51.2 110.732 51.28V54.98C110.832 55.0533 110.946 55.1167 111.072 55.17C111.199 55.2167 111.342 55.24 111.502 55.24Z" fill="#333333" fill-opacity="0.3"/>
<path d="M116.125 56.08C115.672 56.08 115.322 55.9933 115.075 55.82C114.828 55.64 114.655 55.38 114.555 55.04C114.462 54.6933 114.415 54.27 114.415 53.77V52.45C114.415 51.9367 114.465 51.51 114.565 51.17C114.665 50.83 114.838 50.5733 115.085 50.4C115.338 50.2267 115.685 50.14 116.125 50.14C116.612 50.14 116.968 50.24 117.195 50.44C117.428 50.64 117.582 50.93 117.655 51.31C117.728 51.6833 117.765 52.1333 117.765 52.66V53.13H115.485V54.29C115.485 54.5233 115.505 54.7133 115.545 54.86C115.592 55.0067 115.662 55.1167 115.755 55.19C115.855 55.2567 115.982 55.29 116.135 55.29C116.295 55.29 116.415 55.2533 116.495 55.18C116.582 55.1 116.638 54.99 116.665 54.85C116.698 54.7033 116.715 54.5333 116.715 54.34V53.99H117.755V54.21C117.755 54.79 117.632 55.2467 117.385 55.58C117.138 55.9133 116.718 56.08 116.125 56.08ZM115.485 52.55H116.715V52.03C116.715 51.79 116.702 51.59 116.675 51.43C116.648 51.2633 116.592 51.14 116.505 51.06C116.425 50.9733 116.295 50.93 116.115 50.93C115.942 50.93 115.808 50.97 115.715 51.05C115.628 51.13 115.568 51.2667 115.535 51.46C115.502 51.6467 115.485 51.9067 115.485 52.24V52.55Z" fill="#333333" fill-opacity="0.3"/>
<path d="M119.134 56V50.22H122.494V56H121.424V51.03H120.204V56H119.134Z" fill="#333333" fill-opacity="0.3"/>
<path d="M125.578 56.08C125.124 56.08 124.774 55.9933 124.528 55.82C124.281 55.64 124.108 55.38 124.008 55.04C123.914 54.6933 123.868 54.27 123.868 53.77V52.45C123.868 51.9367 123.918 51.51 124.018 51.17C124.118 50.83 124.291 50.5733 124.538 50.4C124.791 50.2267 125.138 50.14 125.578 50.14C126.064 50.14 126.421 50.24 126.648 50.44C126.881 50.64 127.034 50.93 127.108 51.31C127.181 51.6833 127.218 52.1333 127.218 52.66V53.13H124.938V54.29C124.938 54.5233 124.958 54.7133 124.998 54.86C125.044 55.0067 125.114 55.1167 125.208 55.19C125.308 55.2567 125.434 55.29 125.588 55.29C125.748 55.29 125.868 55.2533 125.948 55.18C126.034 55.1 126.091 54.99 126.118 54.85C126.151 54.7033 126.168 54.5333 126.168 54.34V53.99H127.208V54.21C127.208 54.79 127.084 55.2467 126.838 55.58C126.591 55.9133 126.171 56.08 125.578 56.08ZM124.938 52.55H126.168V52.03C126.168 51.79 126.154 51.59 126.128 51.43C126.101 51.2633 126.044 51.14 125.958 51.06C125.878 50.9733 125.748 50.93 125.568 50.93C125.394 50.93 125.261 50.97 125.168 51.05C125.081 51.13 125.021 51.2667 124.988 51.46C124.954 51.6467 124.938 51.9067 124.938 52.24V52.55Z" fill="#333333" fill-opacity="0.3"/>
<path d="M129.197 56V51.02H128.117V50.22H131.357V51.02H130.267V56H129.197Z" fill="#333333" fill-opacity="0.3"/>
<path d="M132.404 56V50.22H133.304V54.11L135.044 50.22H135.884V56H135.004V52.08L133.274 56H132.404Z" fill="#333333" fill-opacity="0.3"/>
<path d="M138.025 56V51.02H136.945V50.22H140.185V51.02H139.095V56H138.025Z" fill="#333333" fill-opacity="0.3"/>
<path d="M142.763 56.08C142.337 56.08 142 55.9933 141.753 55.82C141.507 55.6467 141.33 55.4 141.223 55.08C141.123 54.76 141.073 54.3833 141.073 53.95V52.27C141.073 51.8367 141.123 51.46 141.223 51.14C141.33 50.82 141.507 50.5733 141.753 50.4C142 50.2267 142.337 50.14 142.763 50.14C143.19 50.14 143.523 50.2267 143.763 50.4C144.01 50.5733 144.183 50.82 144.283 51.14C144.39 51.46 144.443 51.8367 144.443 52.27V53.95C144.443 54.3833 144.39 54.76 144.283 55.08C144.183 55.4 144.01 55.6467 143.763 55.82C143.523 55.9933 143.19 56.08 142.763 56.08ZM142.763 55.29C142.97 55.29 143.113 55.23 143.193 55.11C143.28 54.99 143.33 54.8333 143.343 54.64C143.363 54.44 143.373 54.2333 143.373 54.02V52.21C143.373 51.99 143.363 51.7833 143.343 51.59C143.33 51.3967 143.28 51.24 143.193 51.12C143.113 50.9933 142.97 50.93 142.763 50.93C142.557 50.93 142.41 50.9933 142.323 51.12C142.237 51.24 142.183 51.3967 142.163 51.59C142.15 51.7833 142.143 51.99 142.143 52.21V54.02C142.143 54.2333 142.15 54.44 142.163 54.64C142.183 54.8333 142.237 54.99 142.323 55.11C142.41 55.23 142.557 55.29 142.763 55.29Z" fill="#333333" fill-opacity="0.3"/>
<path d="M145.821 57.9V50.22H146.891V50.68C147.018 50.5333 147.171 50.4067 147.351 50.3C147.531 50.1933 147.745 50.14 147.991 50.14C148.291 50.14 148.528 50.22 148.701 50.38C148.881 50.5333 149.015 50.73 149.101 50.97C149.188 51.2033 149.245 51.4433 149.271 51.69C149.298 51.93 149.311 52.1367 149.311 52.31V53.71C149.311 54.1167 149.271 54.5033 149.191 54.87C149.111 55.23 148.965 55.5233 148.751 55.75C148.545 55.97 148.251 56.08 147.871 56.08C147.665 56.08 147.481 56.03 147.321 55.93C147.161 55.8233 147.018 55.7033 146.891 55.57V57.9H145.821ZM147.661 55.24C147.848 55.24 147.981 55.1733 148.061 55.04C148.141 54.9 148.191 54.7133 148.211 54.48C148.231 54.2467 148.241 53.99 148.241 53.71V52.31C148.241 52.07 148.228 51.85 148.201 51.65C148.175 51.4433 148.118 51.28 148.031 51.16C147.945 51.04 147.808 50.98 147.621 50.98C147.481 50.98 147.348 51.01 147.221 51.07C147.095 51.13 146.985 51.2 146.891 51.28V54.98C146.991 55.0533 147.105 55.1167 147.231 55.17C147.358 55.2167 147.501 55.24 147.661 55.24Z" fill="#333333" fill-opacity="0.3"/>
</g>
<defs>
<clipPath id="clip0_509_8">
<rect width="183" height="86" fill="white"/>
</clipPath>
</defs>
</svg>
