<!-- icon666.com - MILLIONS vector ICONS FREE --><svg fill="#d9d9d933" viewBox="0 -20 512.00499 512" xmlns="http://www.w3.org/2000/svg"><path d="m511.960938 459.648438c-.320313-3.5-2.375-6.527344-5.496094-8.101563-4.535156-2.289063-10.910156-2.203125-16.535156-2.125-1.9375.027344-3.769532.050781-5.265626-.03125.019532-.144531.050782-.289063.050782-.441406l4.238281-231.03125c4.402344-.429688 9.714844-1.804688 12.808594-6.308594 5.671875-8.25-1.15625-18.839844-3.402344-22.320313l-42.847656-66.457031c-3.09375-4.800781-6.945313-10.773437-13.21875-13.828125-5.058594-2.464844-10.8125-2.523437-15.433594-2.570312-25.4375-.25-50.210937-.230469-74.164063-.210938-23.949218.019532-48.710937.035156-74.125-.214844-.011718 0-.023437 0-.035156 0-.246094 0-.484375.027344-.714844.074219-.691406-.660156-1.390624-1.320312-2.082031-1.980469-3.511719-3.351562-8.253906-7.867187-14.398437-9.171874l-.257813-34.289063c6.671875-3.300781 15.03125-1.449219 20.945313.742187 2.785156 1.03125 5.601562 2.296876 8.328125 3.519532 4.9375 2.210937 10.039062 4.496094 15.558593 5.753906 3.703126.84375 7.421876 1.195312 11.109376 1.195312 9.976562 0 19.78125-2.5625 28.71875-4.898437 1.265624-.328125 2.242187-1.332031 2.546874-2.605469.300782-1.269531-.125-2.605468-1.105468-3.46875-5.800782-5.097656-10.746094-11.050781-14.699219-17.683594-.894531-1.496093-1.027344-2.101562-.980469-2.34375.09375-.480468 1.210938-1.457031 1.6875-1.878906l16.503906-14.472656c1.253907-1.101562 1.566407-2.929688.75-4.386719-.816406-1.457031-2.542968-2.144531-4.136718-1.644531-10.125 3.160156-22.238282 1.65625-37.023438-4.601562-2.019531-.851563-4.074218-1.777344-6.0625-2.675782-6.0625-2.730468-12.335937-5.558594-19.089844-7.074218-8.710937-1.953126-16.964843-1.171876-23.460937 2.085937l-.019531-2.691406c-.015625-1.945313-1.59375-3.50781275-3.535156-3.50781275-.007813 0-.019532 0-.027344 0-1.953125.01171875-3.523438 1.60937475-3.507813 3.55859375l.6875 91.40625c-6.867187 1.519531-12.257812 7.132812-16.773437 11.859375-.71875.753906-1.417969 1.476563-2.109375 2.175781-23.632813-.207031-46.699219-.328125-69.007813-.445312-22.40625-.113282-45.574218-.234375-69.3125-.445313-6.339844-.058593-13.519531-.121093-20.085937 2.828125-8.074219 3.625-13.265625 10.792969-18.300781 18.449219-14.898438 22.628906-29.058594 46.144531-42.09375 69.898437-1.40625 2.5625-4.335938 7.898438-1.925782 12.9375 2.882813 6.027344 10.492188 6.203126 13.722656 6.203126h.304688l4.308594-.007813 1.492187 226.511719c-3.109375.121094-6.234375.222656-9.339843.347656-5.398438.21875-12.796876.515625-18.535157 4.359375-3.648437 2.445313-6.164062 6.597656-6.5585935 10.832031-.3203125 3.425782.7773435 6.558594 3.0859375 8.824219.660156.644531 1.542969 1.007813 2.464844 1.011719l487.816406 1.90625h.863281c3.949219 0 9.441406-.199219 13.582032-3.339844 2.894531-2.195312 4.421874-5.644531 4.09375-9.226562zm-256.582032-95.980469.007813 78.035156c-11.003907-.101563-22.011719-.15625-33.015625-.179687l1.0625-70.652344c.03125-2.3125.175781-4.664063 1.496094-5.855469 1.148437-1.035156 3.132812-1.132813 5.242187-1.148437zm4.046875 78.066406-.007812-78.097656 28.683593-.222657c2.261719-.007812 4.566407.074219 5.734376 1.339844 1.109374 1.207032 1.09375 3.402344.980468 5.550782l-3.753906 71.851562c-10.539062-.171875-21.082031-.320312-31.636719-.421875zm37.382813-79.714844c-2.289063-2.484375-5.707032-2.660156-8.738282-2.644531l-30.605468.238281c-.023438 0-.042969-.007812-.070313-.007812-.027343 0-.050781.007812-.082031.007812l-27.171875.214844c-2.203125.015625-5.535156.042969-7.917969 2.1875-2.523437 2.28125-2.785156 5.734375-2.828125 8.792969l-1.066406 70.707031c-1.859375-.003906-3.71875-.015625-5.578125-.015625l.375-71.207031c.023438-5.1875.273438-10.09375 2.96875-13.113281 3.292969-3.683594 9.703125-3.859376 15.453125-3.734376l54.8125 1.195313c4.976563.109375 10.507813.496094 13.175781 3.71875 2.195313 2.648437 2.261719 6.910156 2.132813 11.417969l-2.082031 72.535156c-1.492188-.027344-2.988282-.054688-4.484376-.082031l3.75-71.714844c.117188-2.222656.308594-5.941406-2.042968-8.496094zm8.167968-8.171875c-4.566406-5.515625-11.925781-6.128906-18.464843-6.269531l-54.8125-1.199219c-7.324219-.164062-15.582031.167969-20.878907 6.09375-4.699218 5.265625-4.738281 12.800782-4.765624 17.785156l-.375 71.257813c-15.554688.023437-31.09375.121094-46.59375.300781l1.046874-224.710937c.003907-.441407-.085937-.863281-.234374-1.257813l87.585937-89.359375c3.019531-3.078125 5.566406-5.496093 8.589844-6.285156 6.703125-1.742187 13.632812 5.238281 18.261719 10.640625l69.585937 81.238281c2.050781 2.394531 4.335937 5.039063 7.265625 7.0625l-3.101562 224.316407c-4.222657-.125-8.449219-.257813-12.65625-.367188-9.574219-.25-19.167969-.460938-28.773438-.652344l2.078125-72.460937c.125-4.464844.320313-11.214844-3.757813-16.132813zm53.238282-131.800781c3.535156.527344 7.003906-.261719 9.59375-2.332031.445312-.355469.835937-.742188 1.207031-1.140625l112.863281-.445313-4.230468 230.691406c0 .058594.015624.113282.015624.175782-14.339843-.816406-28.808593-1.574219-43.132812-2.253906-26.316406-1.246094-52.929688-2.273438-79.382812-3.078126zm-5.511719-108.753906c23.9375-.019531 48.6875-.039063 74.089844.210937 4.113281.042969 8.777343.089844 12.402343 1.855469 4.5 2.191406 7.621094 7.03125 10.375 11.304687l42.851563 66.457032c4.386719 6.804687 5.539063 11.542968 3.515625 14.484375-1.8125 2.636719-5.835938 3.285156-10.1875 3.417969-.070312-.007813-.136719-.023438-.203125-.023438-.023437-.003906-.046875-.003906-.066406-.003906-.140625 0-.273438.027344-.410157.042968-.367187.007813-.738281.011719-1.109374.011719l-111.875.441407c.234374-2.121094.019531-4.257813-.535157-6.125-1.246093-4.207032-3.792969-7.46875-6.75-10.996094-23.507812-28.070313-50.449219-53.625-76.503906-78.335938-1.019531-.96875-2.035156-1.933594-3.050781-2.902344 23.085937.191407 45.613281.175782 67.457031.160157zm-91.675781-60.246094-.007813-1.367187 45.433594-31.335938c.027344.011719.054687.023438.082031.035156 4.21875 1.785156 8.25 3.207032 12.121094 4.285156l-39.632812 28.390626c-6.703126-1.699219-12.796876-1.699219-17.996094-.007813zm76.773437 8.644531c-9.828125 2.417969-20.398437 4.332032-30.3125 2.074219-.621093-.144531-1.238281-.300781-1.855469-.472656l21.441407-15.4375c3.078125 4.992187 6.65625 9.632812 10.726562 13.835937zm-9.265625-28.03125c-1.277344 1.117188-3.414062 2.992188-3.964844 5.847656-.34375 1.777344.027344 3.421876.558594 4.769532l-24.214844 17.433594c-2.53125-.96875-5.058593-2.09375-7.664062-3.261719-2.832031-1.269531-5.757812-2.578125-8.761719-3.695313-.207031-.074218-.40625-.136718-.609375-.210937l39.984375-28.640625c4.226563.855468 8.261719 1.285156 12.105469 1.234375zm-26.433594-15.226562-41.121093 28.363281-.109375-14.527344c.015625-.011719.035156-.011719.050781-.023437l29.617187-18.777344c3.238282 1.226562 6.460938 2.671875 9.785157 4.167969.582031.265625 1.183593.53125 1.777343.796875zm-19.511718-7.417969c1.019531.230469 2.023437.5 3.023437.792969l-24.777343 15.707031-.097657-13.023437c5.222657-4.152344 13.160157-5.425782 21.851563-3.476563zm-39.980469 100.695313c5.109375-5.347657 10.398437-10.871094 16.625-9.980469 4.113281.589843 7.699219 3.738281 11.628906 7.488281 4.179688 3.988281 8.371094 7.964844 12.566407 11.945312 25.914062 24.574219 52.703124 49.988282 75.953124 77.746094 2.4375 2.914063 4.527344 5.5625 5.390626 8.46875.683593 2.292969.425781 5.371094-1.378907 6.816406-1.53125 1.222657-3.863281 1.101563-5.765625.425782-.605468-.855469-1.582031-1.425782-2.699218-1.480469-2.070313-1.503906-3.882813-3.601563-5.640626-5.65625l-69.585937-81.234375c-5.867187-6.847656-14.882813-15.628906-25.414063-12.882812-5.15625 1.34375-8.871093 5.132812-11.855468 8.175781l-90.722656 92.558593c-2.121094 2.164063-4.527344 4.617188-7.222657 5.492188-1.84375.601562-4.429687.167969-5.132812-1.3125-1.085938-2.304688 2.148437-6.011719 4.171875-8.019531l50.785156-50.277344c7.652344-7.578125 15.394531-15.328125 22.878906-22.824219 7.394532-7.40625 15.039063-15.0625 22.59375-22.542968.921875-.914063 1.859375-1.898438 2.824219-2.90625zm-213.929687 99.648437c-.027344 0-.050782 0-.074219 0-4.324219 0-6.867188-.734375-7.5625-2.183594-.746094-1.558593.464843-4.152343 1.746093-6.488281 12.941407-23.585938 27.003907-46.941406 41.796876-69.414062 4.441406-6.746094 8.957031-13.039063 15.296874-15.886719 5.15625-2.3125 11.515626-2.257813 17.125-2.207031 23.75.210937 46.925782.332031 69.339844.449218 20.097656.101563 40.8125.210938 62 .382813-5.433594 5.410156-10.859375 10.84375-16.15625 16.148437-7.480468 7.488282-15.210937 15.234375-22.847656 22.796875l-50.785156 50.28125c-2.054688 2.03125-3.613282 4.003907-4.695313 5.914063zm11.390624 7.046875 92.039063-.179688c.109375 1.050782.386719 2.078126.859375 3.070313 1.8125 3.839844 5.871094 5.621094 9.820312 5.621094 1.339844 0 2.664063-.203125 3.886719-.601563 2.464844-.800781 4.546875-2.199218 6.359375-3.730468l-1.023437 219.324218c-4.976563.066406-9.960938.121094-14.929688.203125-31.707031.515625-63.75 1.386719-95.519531 2.554688zm463.527344 244.839844c-2.347656 1.78125-6.136718 1.90625-10.144531 1.898437l-486.058594-1.898437c-.269531-.605469-.371093-1.3125-.296875-2.113282.199219-2.109374 1.585938-4.367187 3.457032-5.617187 3.773437-2.527344 8.972656-2.929687 14.882812-3.171875 37.046875-1.492188 74.648438-2.554688 111.757812-3.160156 65.71875-1.070313 132.351563-.742188 198.046876.976562 32.84375.863282 66.136718 2.085938 98.953124 3.644532 16.601563.789062 33.414063 1.675781 49.972657 2.640624 1.765625.101563 3.753906.078126 5.859375.046876 4.574218-.0625 10.265625-.140626 13.257812 1.367187 1.339844.675781 1.589844 1.925781 1.636719 2.433594.050781.546875.019531 1.929687-1.324219 2.953125zm0 0"></path><path d="m310.339844 234.546875c-1.800782-17.300781-12.171875-31.425781-31.710938-43.175781-14.269531-8.585938-29.851562-8.277344-46.316406.917968-9.46875 5.289063-17.253906 13.246094-21.914062 22.410157-9.929688 19.507812-6.285157 45.207031 8.664062 61.105469 10.070312 10.707031 24.773438 16.53125 39.390625 16.53125 7.238281 0 14.460937-1.429688 21.082031-4.40625 20.125-9.046876 33.082032-31.5 30.804688-53.382813zm-33.703125 46.933594c-17.320313 7.789062-39.367188 3.363281-52.421875-10.519531-12.976563-13.800782-16.136719-36.113282-7.515625-53.054688 4.03125-7.929688 10.800781-14.832031 19.0625-19.445312 7.367187-4.113282 14.492187-6.171876 21.320312-6.171876 6.226563 0 12.210938 1.710938 17.90625 5.136719 17.746094 10.675781 26.746094 22.703125 28.320313 37.855469 1.96875 18.9375-9.246094 38.367188-26.671875 46.199219zm0 0"></path><path d="m273.953125 201.714844c-11.097656-6.679688-23.238281-6.425782-36.078125.742187-7.402344 4.136719-13.484375 10.351563-17.125 17.507813-7.757812 15.242187-4.910156 35.324218 6.769531 47.746094 7.863281 8.363281 19.355469 12.914062 30.769531 12.914062 5.65625 0 11.296876-1.117188 16.46875-3.441406 15.71875-7.066406 25.839844-24.601563 24.058594-41.691406-1.40625-13.511719-9.539062-24.558594-24.863281-33.777344zm-.851563 71.78125c-14.089843 6.335937-32.023437 2.738281-42.640624-8.554688-10.550782-11.222656-13.121094-29.367187-6.113282-43.144531 3.28125-6.449219 8.785156-12.0625 15.496094-15.8125 5.996094-3.347656 11.796875-5.023437 17.363281-5.023437 5.097657 0 9.996094 1.40625 14.664063 4.214843 14.359375 8.636719 21.644531 18.402344 22.929687 30.730469 1.601563 15.410156-7.523437 31.21875-21.699219 37.589844zm0 0"></path><path d="m257.195312 210.960938c-1.113281.039062-1.988281.96875-1.953124 2.085937l.9375 28.863281-20.027344 1.460938c-1.109375.082031-1.949219 1.046875-1.867188 2.160156.078125 1.0625.964844 1.875 2.011719 1.875.050781 0 .101563-.003906.148437-.007812l21.964844-1.601563c1.082032-.078125 1.90625-.996094 1.871094-2.078125l-1.003906-30.804688c-.035156-1.113281-.972656-1.972656-2.082032-1.953124zm0 0"></path><path d="m50.03125 309.878906c1.363281 1.519532 3.347656 1.679688 4.683594 1.679688.195312 0 .378906-.003906.542968-.007813l31.285157-.597656c.945312-.015625 2.527343-.046875 3.792969-1.0625 1.585937-1.269531 1.769531-3.300781 1.871093-4.394531.09375-1.027344.269531-2.9375-.917969-4.425782-.449218-.5625-.992187-.933593-1.558593-1.195312.976562-14.433594 1.914062-29.332031-1.683594-43.800781-.980469-3.953125-2.605469-8.90625-6.492187-12.117188-4.96875-4.109375-12.917969-4.261719-18.910157-.363281-4.921875 3.199219-8.539062 8.789062-10.191406 15.746094-1.433594 6.019531-1.308594 12.164062-1.1875 18.105468l.449219 22.316407c-.640625.253906-1.265625.640625-1.789063 1.242187-1.242187 1.441406-1.222656 3.308594-1.210937 4.421875.015625 1.132813.039062 3.023438 1.316406 4.453125zm35.691406-10.605468c-4.160156-.019532-8.316406-.015626-12.472656-.003907l-.175781-26.976562 13.265625-.1875c.558594 9.035156-.007813 18.191406-.617188 27.167969zm-16.511718.003906c-2.304688.003906-4.613282.007812-6.914063.007812l-6.550781-.011718-.441406-21.910157c-.03125-1.59375-.058594-3.203125-.0625-4.8125l13.792968-.199219zm18.976562 5.847656c-.085938.941406-.214844 1.484375-.375 1.613281-.195312.15625-1 .171875-1.34375.179688l-31.289062.59375c-.496094.007812-1.8125.035156-2.136719-.328125-.265625-.296875-.277344-1.3125-.285157-1.800782-.003906-.472656-.015624-1.453124.226563-1.730468.28125-.328125 1.496094-.339844 1.972656-.339844h.058594l7.277344.011719c3.261719.003906 6.527343-.003907 9.792969-.011719 4.757812-.011719 9.519531-.023438 14.28125.003906 1.402343.007813 1.699218.195313 1.765624.273438.117188.144531.132813.664062.054688 1.535156zm-4.058594-48.078125c.902344 3.632813 1.503906 7.3125 1.882813 11.023437l-12.960938.183594-.152343-23.402344c2.289062.128907 4.445312.863282 6.082031 2.21875 2.980469 2.460938 4.316406 6.625 5.148437 9.976563zm-19.277344-10.070313c1.242188-.804687 2.609376-1.378906 4.007813-1.730468l.152344 23.066406-13.6875.195312c.128906-2.789062.425781-5.554687 1.0625-8.234374 1.410156-5.941407 4.417969-10.660157 8.464843-13.296876zm0 0"></path><path d="m102.195312 309.878906c1.359376 1.519532 3.347657 1.679688 4.679688 1.679688.199219 0 .382812-.003906.546875-.007813l31.285156-.597656c.945313-.015625 2.523438-.046875 3.792969-1.0625 1.585938-1.269531 1.773438-3.304687 1.871094-4.394531.09375-1.027344.269531-2.9375-.917969-4.425782-.449219-.5625-.992187-.933593-1.558594-1.195312.976563-14.433594 1.914063-29.332031-1.679687-43.804688-.984375-3.953124-2.609375-8.902343-6.496094-12.117187-4.964844-4.105469-12.917969-4.257813-18.910156-.363281-4.917969 3.203125-8.539063 8.792968-10.191406 15.746094-1.429688 6.023437-1.308594 12.167968-1.1875 18.109374l.449218 22.316407c-.640625.253906-1.265625.640625-1.785156 1.242187-1.246094 1.4375-1.222656 3.304688-1.210938 4.421875.011719 1.132813.035157 3.023438 1.3125 4.453125zm35.691407-10.605468c-4.160157-.019532-8.316407-.015626-12.472657-.003907l-.175781-26.976562 13.265625-.1875c.558594 9.035156-.007812 18.191406-.617187 27.167969zm-16.511719.003906c-2.304688.003906-4.613281.007812-6.914062.007812l-6.550782-.011718-.441406-21.910157c-.03125-1.59375-.0625-3.203125-.0625-4.8125l13.792969-.199219zm18.972656 5.851562c-.085937.9375-.210937 1.480469-.375 1.609375-.191406.15625-1 .171875-1.34375.179688l-31.285156.59375c-.5.011719-1.8125.035156-2.140625-.328125-.265625-.296875-.277344-1.3125-.28125-1.800782-.007813-.472656-.015625-1.453124.226563-1.734374.28125-.324219 1.492187-.335938 1.972656-.335938h.054687l7.277344.011719c3.265625.003906 6.53125-.003907 9.792969-.011719 4.761718-.011719 9.519531-.023438 14.285156.003906 1.398438.007813 1.699219.195313 1.765625.273438.113281.148437.132813.664062.050781 1.539062zm-4.054687-48.082031c.902343 3.632813 1.5 7.3125 1.882812 11.023437l-12.960937.183594-.152344-23.402344c2.285156.128907 4.445312.863282 6.082031 2.21875 2.976563 2.460938 4.316407 6.625 5.148438 9.976563zm-19.28125-10.066406c1.242187-.808594 2.609375-1.382813 4.011719-1.734375l.148437 23.066406-13.683594.195312c.125-2.785156.421875-5.554687 1.058594-8.234374 1.414063-5.941407 4.417969-10.660157 8.464844-13.292969zm0 0"></path><path d="m89.730469 387.488281c.980469-14.433593 1.914062-29.332031-1.679688-43.804687-.984375-3.949219-2.609375-8.902344-6.496093-12.113282-4.964844-4.109374-12.917969-4.261718-18.90625-.363281-4.921876 3.199219-8.542969 8.789063-10.195313 15.746094-1.429687 6.019531-1.304687 12.164063-1.1875 18.105469l.453125 22.316406c-.640625.253906-1.265625.640625-1.789062 1.242188-1.246094 1.4375-1.222657 3.304687-1.210938 4.421874.011719 1.132813.035156 3.023438 1.3125 4.453126 1.363281 1.519531 3.351562 1.679687 4.6875 1.679687.195312 0 .375-.003906.539062-.007813l31.285157-.59375c.945312-.019531 2.527343-.050781 3.792969-1.066406 1.585937-1.265625 1.773437-3.300781 1.875-4.394531.09375-1.027344.265624-2.933594-.921876-4.425781-.445312-.5625-.992187-.933594-1.558593-1.195313zm-33.984375-.601562-.441406-21.910157c-.03125-1.59375-.058594-3.203124-.0625-4.8125l13.792968-.199218.175782 26.921875c-2.304688.007812-4.609376.011719-6.914063.011719zm17.503906-.003907-.171875-26.976562 13.261719-.1875c.5625 9.035156-.007813 18.191406-.617188 27.167969-4.15625-.019531-8.316406-.011719-12.472656-.003907zm10.878906-42.222656c.902344 3.632813 1.503906 7.3125 1.882813 11.019532l-12.960938.1875-.152343-23.40625c2.285156.128906 4.445312.867187 6.082031 2.21875 2.980469 2.464843 4.316406 6.628906 5.148437 9.980468zm-19.277344-10.070312c1.242188-.804688 2.609376-1.378906 4.007813-1.734375l.152344 23.070312-13.6875.195313c.128906-2.789063.425781-5.554688 1.0625-8.234375 1.410156-5.941407 4.417969-10.664063 8.464843-13.296875zm23.335938 58.148437c-.085938.941407-.214844 1.480469-.375 1.613281-.195312.15625-1 .171876-1.34375.175782l-31.285156.597656c-.496094.007812-1.816406.035156-2.140625-.332031-.265625-.292969-.277344-1.308594-.285157-1.800781-.003906-.46875-.015624-1.449219.226563-1.730469.28125-.324219 1.496094-.335938 1.972656-.335938h.058594l7.277344.007813c3.277343.007812 6.558593 0 9.839843-.007813 4.746094-.011719 9.488282-.023437 14.234376.003907 1.402343.007812 1.703124.191406 1.765624.273437.117188.144531.132813.664063.054688 1.535156zm0 0"></path><path d="m142.5 397.503906c1.585938-1.269531 1.773438-3.300781 1.871094-4.394531.09375-1.027344.269531-2.933594-.917969-4.425781-.449219-.5625-.992187-.929688-1.558594-1.195313.976563-14.433593 1.914063-29.332031-1.679687-43.804687-.984375-3.953125-2.609375-8.902344-6.496094-12.113282-4.964844-4.109374-12.917969-4.261718-18.910156-.363281-4.917969 3.199219-8.539063 8.792969-10.191406 15.746094-1.429688 6.023437-1.308594 12.164063-1.1875 18.105469l.449218 22.316406c-.640625.257812-1.265625.640625-1.785156 1.246094-1.246094 1.433594-1.222656 3.300781-1.210938 4.417968.011719 1.132813.03125 3.023438 1.3125 4.453126 1.363282 1.519531 3.351563 1.679687 4.683594 1.679687.195313 0 .378906-.003906.539063-.007813l31.289062-.59375c.945313-.023437 2.523438-.050781 3.792969-1.066406zm-34.589844-10.617187-.441406-21.910157c-.03125-1.59375-.0625-3.203124-.0625-4.8125l13.792969-.199218.175781 26.921875c-2.308594.007812-4.609375.011719-6.917969.011719zm17.503906-.003907-.175781-26.976562 13.265625-.1875c.558594 9.035156-.011718 18.191406-.617187 27.167969-4.160157-.019531-8.316407-.011719-12.472657-.003907zm10.878907-42.222656c.902343 3.632813 1.5 7.3125 1.882812 11.019532l-12.960937.1875-.152344-23.40625c2.285156.132812 4.445312.867187 6.082031 2.21875 2.976563 2.464843 4.316407 6.625 5.148438 9.980468zm-19.28125-10.070312c1.242187-.804688 2.609375-1.378906 4.011719-1.734375l.148437 23.070312-13.683594.195313c.125-2.789063.421875-5.554688 1.058594-8.234375 1.414063-5.941407 4.417969-10.664063 8.464844-13.296875zm-9.667969 60.535156c-.496094.007812-1.816406.035156-2.140625-.332031-.265625-.296875-.277344-1.3125-.28125-1.796875-.007813-.472656-.015625-1.453125.226563-1.734375.28125-.324219 1.492187-.335938 1.972656-.335938h.058594l7.273437.007813c3.28125.007812 6.5625 0 9.84375-.007813 4.742187-.011719 9.488281-.023437 14.234375.003907 1.398438.007812 1.699219.191406 1.765625.273437.117187.144531.132813.664063.054687 1.539063-.085937.9375-.214843 1.480468-.375 1.609374-.195312.15625-1.003906.171876-1.347656.179688zm0 0"></path><path d="m410.683594 299.875c.980468-14.433594 1.914062-29.332031-1.679688-43.800781-.984375-3.953125-2.609375-8.902344-6.496094-12.117188-4.964843-4.109375-12.917968-4.257812-18.910156-.363281-4.917968 3.199219-8.539062 8.792969-10.191406 15.746094-1.429688 6.019531-1.304688 12.164062-1.1875 18.105468l.453125 22.316407c-.644531.253906-1.265625.640625-1.789063 1.246093-1.242187 1.433594-1.222656 3.300782-1.210937 4.417969.011719 1.132813.035156 3.023438 1.3125 4.453125 1.363281 1.519532 3.347656 1.679688 4.683594 1.679688.195312 0 .378906-.003906.542969-.007813l31.285156-.59375c.945312-.019531 2.527344-.050781 3.792968-1.066406 1.585938-1.269531 1.773438-3.300781 1.875-4.390625.09375-1.027344.269532-2.933594-.921874-4.429688-.445313-.558593-.992188-.929687-1.558594-1.195312zm-33.984375-.601562-.441407-21.910157c-.03125-1.59375-.0625-3.203125-.0625-4.8125l13.792969-.199219.175781 26.925782c-2.304687.003906-4.613281.007812-6.914062.007812zm17.503906-.003907-.175781-26.976562 13.265625-.1875c.558593 9.035156-.011719 18.191406-.617188 27.167969-4.160156-.019532-8.316406-.015626-12.472656-.003907zm10.878906-42.222656c.902344 3.632813 1.5 7.3125 1.882813 11.023437l-12.960938.183594-.152344-23.402344c2.285157.128907 4.445313.863282 6.082032 2.21875 2.980468 2.460938 4.316406 6.625 5.148437 9.976563zm-19.28125-10.070313c1.242188-.804687 2.613281-1.378906 4.011719-1.730468l.152344 23.066406-13.6875.195312c.125-2.789062.421875-5.554687 1.058594-8.234374 1.414062-5.941407 4.421874-10.660157 8.464843-13.296876zm23.339844 58.152344c-.085937.9375-.214844 1.480469-.375 1.609375-.195313.15625-1.003906.171875-1.347656.179688l-31.285157.59375c-.496093.007812-1.8125.035156-2.136718-.328125-.269532-.296875-.277344-1.3125-.285156-1.800782-.003907-.472656-.015626-1.453124.226562-1.730468.28125-.328125 1.492188-.339844 1.972656-.339844h.058594l7.273438.011719c3.265624.003906 6.53125-.003907 9.792968-.011719 4.761719-.011719 9.519532-.023438 14.285156.003906 1.402344.007813 1.699219.195313 1.765626.273438.117187.148437.132812.664062.054687 1.539062zm0 0"></path><path d="m423.148438 309.878906c1.359374 1.519532 3.34375 1.679688 4.679687 1.679688.195313 0 .378906-.003906.542969-.007813l31.289062-.597656c.945313-.015625 2.523438-.046875 3.792969-1.0625 1.585937-1.269531 1.769531-3.300781 1.871094-4.394531.09375-1.027344.269531-2.933594-.921875-4.425782-.445313-.5625-.988282-.933593-1.554688-1.195312.976563-14.433594 1.914063-29.332031-1.683594-43.800781-.980468-3.953125-2.605468-8.90625-6.492187-12.117188-4.96875-4.109375-12.917969-4.261719-18.910156-.363281-4.917969 3.199219-8.539063 8.792969-10.191407 15.746094-1.433593 6.019531-1.308593 12.164062-1.1875 18.105468l.449219 22.316407c-.644531.257812-1.265625.640625-1.789062 1.242187-1.242188 1.4375-1.222657 3.304688-1.210938 4.421875.015625 1.132813.035157 3.023438 1.316407 4.453125zm35.691406-10.605468c-4.160156-.019532-8.316406-.015626-12.472656-.003907l-.175782-26.976562 13.265625-.1875c.558594 9.035156-.011719 18.191406-.617187 27.167969zm-16.511719.003906c-2.308594.003906-4.613281.007812-6.914063.007812l-6.550781-.011718-.441406-21.910157c-.03125-1.59375-.0625-3.203125-.0625-4.8125l13.792969-.199219zm18.972656 5.851562c-.085937.9375-.210937 1.480469-.375 1.609375-.195312.15625-1 .171875-1.34375.175781l-31.285156.597657c-.496094.011719-1.816406.035156-2.140625-.332031-.265625-.296876-.277344-1.3125-.28125-1.796876-.007812-.472656-.019531-1.453124.222656-1.734374.28125-.324219 1.496094-.335938 1.972656-.335938h.058594l7.277344.011719c3.265625.003906 6.527344-.003907 9.792969-.011719 4.757812-.015625 9.519531-.027344 14.28125.003906 1.402343.007813 1.703125.191406 1.765625.273438.117187.148437.136718.664062.054687 1.539062zm-4.054687-48.082031c.902344 3.632813 1.5 7.3125 1.882812 11.023437l-12.964844.183594-.152343-23.40625c2.289062.132813 4.449219.867188 6.085937 2.222656 2.976563 2.460938 4.316406 6.625 5.148438 9.976563zm-19.28125-10.066406c1.242187-.808594 2.609375-1.382813 4.011718-1.734375l.148438 23.066406-13.683594.195312c.125-2.785156.421875-5.554687 1.058594-8.234374 1.414062-5.941407 4.417969-10.660157 8.464844-13.292969zm0 0"></path><path d="m410.683594 387.488281c.980468-14.433593 1.914062-29.332031-1.679688-43.804687-.984375-3.949219-2.609375-8.902344-6.496094-12.113282-4.964843-4.109374-12.917968-4.261718-18.90625-.363281-4.921874 3.199219-8.542968 8.789063-10.195312 15.746094-1.429688 6.019531-1.304688 12.164063-1.1875 18.105469l.453125 22.316406c-.644531.253906-1.265625.640625-1.789063 1.242188-1.242187 1.4375-1.222656 3.304687-1.210937 4.421874.011719 1.128907.035156 3.023438 1.3125 4.453126 1.363281 1.519531 3.351563 1.679687 4.6875 1.679687.195313 0 .375-.003906.539063-.007813l31.285156-.59375c.945312-.019531 2.527344-.050781 3.792968-1.066406 1.589844-1.269531 1.773438-3.300781 1.875-4.394531.09375-1.023437.269532-2.933594-.921874-4.425781-.445313-.5625-.992188-.933594-1.558594-1.195313zm-33.984375-.601562-.441407-21.910157c-.03125-1.59375-.0625-3.203124-.0625-4.8125l13.792969-.199218.175781 26.921875c-2.304687.007812-4.609374.011719-6.914062.011719zm17.503906-.003907-.175781-26.976562 13.265625-.1875c.558593 9.035156-.011719 18.191406-.617188 27.167969-4.15625-.019531-8.316406-.011719-12.472656-.003907zm10.878906-42.222656c.902344 3.632813 1.5 7.3125 1.882813 11.019532l-12.960938.1875-.152344-23.40625c2.285157.128906 4.445313.867187 6.082032 2.21875 2.980468 2.464843 4.316406 6.628906 5.148437 9.980468zm-19.28125-10.070312c1.242188-.804688 2.613281-1.378906 4.011719-1.734375l.152344 23.070312-13.6875.195313c.125-2.789063.421875-5.554688 1.058594-8.234375 1.414062-5.941407 4.421874-10.664063 8.464843-13.296875zm23.339844 58.152344c-.085937.9375-.210937 1.476562-.375 1.609374-.195313.15625-1.003906.171876-1.347656.175782l-31.285157.597656c-.496093.007812-1.8125.035156-2.140624-.332031-.265626-.296875-.277344-1.3125-.28125-1.800781-.003907-.46875-.015626-1.453126.222656-1.730469.285156-.328125 1.496094-.339844 1.976562-.339844h.058594l7.273438.011719c3.28125.003906 6.5625-.003906 9.84375-.011719 4.746093-.011719 9.484374-.019531 14.234374.003906 1.402344.007813 1.699219.195313 1.765626.277344.117187.144531.132812.664063.054687 1.539063zm0 0"></path><path d="m463.453125 397.503906c1.585937-1.269531 1.769531-3.304687 1.871094-4.394531.09375-1.027344.269531-2.9375-.917969-4.425781-.449219-.5625-.992188-.933594-1.558594-1.195313.976563-14.433593 1.914063-29.332031-1.679687-43.804687-.984375-3.953125-2.609375-8.902344-6.496094-12.117188-4.964844-4.105468-12.917969-4.257812-18.910156-.359375-4.917969 3.199219-8.539063 8.789063-10.191407 15.746094-1.429687 6.019531-1.308593 12.164063-1.1875 18.105469l.449219 22.316406c-.640625.257812-1.265625.640625-1.789062 1.246094-1.242188 1.433594-1.222657 3.300781-1.207031 4.417968.011718 1.132813.03125 3.023438 1.3125 4.453126 1.359374 1.519531 3.351562 1.679687 4.683593 1.679687.195313 0 .378907-.003906.539063-.007813l31.289062-.59375c.945313-.023437 2.527344-.050781 3.792969-1.066406zm-34.589844-10.617187-.441406-21.910157c-.03125-1.59375-.0625-3.203124-.0625-4.8125l13.792969-.199218.175781 26.921875c-2.304687.007812-4.609375.011719-6.914063.011719zm17.503907-.003907-.175782-26.976562 13.265625-.1875c.558594 9.035156-.011719 18.191406-.617187 27.167969-4.160156-.019531-8.316406-.011719-12.472656-.003907zm10.878906-42.222656c.902344 3.632813 1.5 7.3125 1.882812 11.019532l-12.964844.1875-.152343-23.40625c2.289062.132812 4.449219.867187 6.085937 2.21875 2.976563 2.464843 4.316406 6.628906 5.148438 9.980468zm-19.28125-10.070312c1.242187-.804688 2.609375-1.378906 4.011718-1.734375l.148438 23.070312-13.683594.195313c.125-2.789063.421875-5.554688 1.058594-8.234375 1.414062-5.941407 4.417969-10.664063 8.464844-13.296875zm-9.667969 60.535156c-.496094.007812-1.816406.035156-2.140625-.332031-.265625-.296875-.277344-1.3125-.28125-1.796875-.007812-.472656-.019531-1.453125.222656-1.734375.28125-.324219 1.496094-.335938 1.972656-.335938h.058594l7.277344.007813c3.277344.007812 6.5625 0 9.839844-.007813 4.746094-.011719 9.492187-.023437 14.234375.003907 1.402343.007812 1.703125.191406 1.765625.273437.117187.144531.136718.664063.054687 1.539063-.085937.9375-.210937 1.480468-.375 1.609374-.195312.15625-1 .171876-1.34375.175782zm0 0"></path></svg>